<?xml version="1.0" standalone="no"?>
<!DOCTYPE svg PUBLIC "-//W3C//DTD SVG 1.1//EN" "http://www.w3.org/Graphics/SVG/1.1/DTD/svg11.dtd" >
<!--
2013-9-30: Created.
-->
<svg>
<metadata>
Created by iconfont
</metadata>
<defs>

<font id="iconfont" horiz-adv-x="1024" >
  <font-face
    font-family="iconfont"
    font-weight="500"
    font-stretch="normal"
    units-per-em="1024"
    ascent="896"
    descent="-128"
  />
    <missing-glyph />
    
    <glyph glyph-name="fanhui" unicode="&#59053;" d="M778.455579-127.730526c-10.940632 0-21.557895 3.772632-29.965474 10.778947L215.578947 357.376a34.384842 34.384842 0 0 0 0 52.924632L748.490105 884.358737a46.241684 46.241684 0 0 0 59.392 0 34.384842 34.384842 0 0 0 0-52.978526L304.882526 384l502.999579-447.488a34.384842 34.384842 0 0 0 0-52.924632 44.570947 44.570947 0 0 0-29.426526-11.317894z"  horiz-adv-x="1024" />

    
    <glyph glyph-name="link" unicode="&#59054;" d="M512 896A512 512 0 0 1 0 384 512 512 0 0 1 512-128 512 512 0 0 1 1024 384C1024 666.965333 794.965333 896 512 896z m-67.584-766.634667a132.437333 132.437333 0 0 0-187.050667 0 132.437333 132.437333 0 0 0 0 187.050667l132.437334 132.437333a132.437333 132.437333 0 0 0 187.050666 0l4.096-4.096c0.682667-0.682667 1.365333-1.365333 2.389334-2.048 2.048-2.048 3.754667-4.437333 5.12-6.826666 0-0.341333 0.341333-0.341333 0.341333-0.682667a31.675733 31.675733 0 0 0-43.008-42.666667c-1.024-1.024-9.216 7.509333-13.653333 11.605334A68.608 68.608 0 0 1 434.858667 404.48L302.421333 272.042667a68.608 68.608 0 0 1 0-97.28 68.608 68.608 0 0 1 97.28 0l79.872 79.872c27.648-13.653333 60.416-13.994667 88.405334-1.024l-123.562667-124.245334z m322.218667 322.218667L634.197333 319.146667a132.437333 132.437333 0 0 0-187.050666 0l-4.096 4.096a14.813867 14.813867 0 0 1-2.389334 2.048 32.426667 32.426667 0 0 0-5.12 6.826666c0 0.341333-0.341333 0.341333-0.341333 0.682667a31.675733 31.675733 0 0 0 43.008 42.666667c1.024 1.024 9.216-7.509333 13.653333-11.605334 26.965333-26.965333 70.314667-27.306667 97.28-0.341333l132.778667 132.778667a68.608 68.608 0 0 1 0 97.28 68.608 68.608 0 0 1-97.28 0L544.768 513.706667a102.877867 102.877867 0 0 1-88.405333 1.024l123.562666 123.562666a132.437333 132.437333 0 0 0 187.050667 0c51.2-51.2 51.2-135.168-0.341333-186.709333z"  horiz-adv-x="1024" />

    
    <glyph glyph-name="jujiao" unicode="&#59052;" d="M492.823273 896l13.312-0.186182c266.007273-7.074909 479.464727-224.907636 479.464727-492.637091l-0.186182-13.312c-7.074909-266.007273-224.907636-479.464727-492.590545-479.464727C220.625455-89.6 0 131.025455 0 403.176727 0 675.374545 220.625455 896 492.823273 896z m35.188363-71.866182v-138.798545H457.541818V824.133818a422.493091 422.493091 0 0 1-385.861818-386.932363H211.781818v-70.423273H71.959273a422.493091 422.493091 0 0 1 385.303272-384.465455V122.414545h70.376728v-140.241454a422.493091 422.493091 0 0 1 386.001454 384.558545h-138.705454V437.154909h138.938182a422.493091 422.493091 0 0 1-385.861819 386.978909z m-35.746909-280.157091a140.8 140.8 0 0 0 140.8-140.8l-0.232727-8.238545a140.8 140.8 0 0 0-281.367273 8.238545l0.232728 8.285091a140.8 140.8 0 0 0 140.567272 132.514909z"  horiz-adv-x="1024" />

    
    <glyph glyph-name="xiangzuo" unicode="&#58906;" d="M510.921 896c-282.175 0-510.921-228.749-510.921-510.917 0-282.175 228.746-510.924 510.921-510.924 282.172 0 510.921 228.749 510.921 510.924-0.001 282.168-228.75 510.917-510.921 510.917zM606.718 193.484l-31.933-31.933-223.527 223.532 223.528 223.525 31.933-31.933-191.596-191.596 191.595-191.595z"  horiz-adv-x="1024" />

    
    <glyph glyph-name="shouqi" unicode="&#59051;" d="M612.693333 406.050133L112.776533 896 35.703467 818.722133l423.253333-415.744L34.133333-53.6576 116.872533-128l495.8208 534.050133z m-201.386666-459.844266L494.045867-128 989.866667 406.050133 489.949867 896 412.8768 818.722133l423.253333-415.744-424.823466-456.704z"  horiz-adv-x="1024" />

    
    <glyph glyph-name="dianzizhanpai" unicode="&#59050;" d="M840.260267 896H159.163733C127.761067 896 102.4 870.6048 102.4 839.236267v-510.805334c0-31.402667 25.3952-56.763733 56.763733-56.763733h283.784534v-397.312h113.527466v397.312h283.784534c31.402667 0 56.763733 25.361067 56.763733 56.7296V839.236267C897.024 870.6048 871.6288 896 840.260267 896zM272.622933 385.160533H215.9616V555.451733h56.7296v-170.2912z m170.325334 0H386.218667V555.451733h56.7296v-170.2912z m170.2912 0h-56.763734V555.451733h56.763734v-170.2912z m170.257066 0h-56.763733V555.451733h56.763733v-170.2912z m56.763734 283.784534H159.163733v170.325333h681.096534v-170.325333zM386.218667 782.506667h-170.325334v-56.763734h170.325334V782.506667z"  horiz-adv-x="1024" />

    
    <glyph glyph-name="shipin" unicode="&#59049;" d="M972.785715 453.622985a432.838091 432.838091 0 0 1-134.653912 313.54394A467.704751 467.704751 0 0 1 511.992858 895.984128a467.704751 467.704751 0 0 1-326.138945-128.766004A433.042888 433.042888 0 0 1 51.2 453.622985C51.2 261.113969 179.351614 97.276508 358.446438 35.837461c-98.097679-32.767492-162.199086-94.308938-162.199086-163.88866h618.640011c0 69.68212-59.647075 131.172367-153.495221 163.88866C844.890098 97.276508 972.785715 261.113969 972.785715 453.622985z m-452.191391-311.291175c-132.298749 0-243.298629 106.545549-243.298628 233.468381 0 126.974032 110.94868 233.468381 243.298628 233.468381a247.548163 247.548163 0 0 0 171.875736-68.248542 229.116449 229.116449 0 0 0 71.422893-165.219839 229.167648 229.167648 0 0 0-71.422893-165.271038 247.496964 247.496964 0 0 0-171.875736-68.248542zM511.992858 478.096206c-63.999008 0-119.34535-53.298374-119.34535-114.686223 0-65.483785 55.346342-114.583824 119.34535-114.583824 65.739781 0 119.089354 51.352804 119.089354 114.635023S577.732639 478.147405 511.992858 478.147405z"  horiz-adv-x="1024" />

    
    <glyph glyph-name="tingchechang1" unicode="&#59048;" d="M512 896H214.921846v-990.247385h198.065231V301.843692h49.506461v198.065231H412.987077V697.895385H512a99.052308 99.052308 0 0 0 0-198.025847v-198.06523a297.196308 297.196308 0 0 1 297.078154 297.078154A297.196308 297.196308 0 0 1 512 896z"  horiz-adv-x="1024" />

    
    <glyph glyph-name="xinhao" unicode="&#59046;" d="M512 896a512 512 0 1 1 0-1024c282.624 0 512 229.302857 512 512a512 512 0 0 1-512 512zM288.768 121.417143a39.862857 39.862857 0 0 0-39.204571 39.424l16.603428 170.422857a215.113143 215.113143 0 0 0 193.097143-193.097143l-170.496-16.749714z m269.604571 24.356571a317.366857 317.366857 0 0 1-281.307428 287.890286l9.508571 96.987429a414.72 414.72 0 0 0 369.078857-375.369143l-97.28-9.508572z m195.803429 20.626286a509.805714 509.805714 0 0 1-459.702857 459.922286l9.508571 96.987428a606.208 606.208 0 0 0 547.254857-547.401143l-97.060571-9.508571z"  horiz-adv-x="1024" />

    
    <glyph glyph-name="dingwei" unicode="&#944760;" d="M513.979733 876.885333C289.928533 876.885333 108.270933 694.408533 108.270933 468.7872a407.552 407.552 0 0 1 118.920534-288.494933l286.788266-288.5632 286.72 288.5632a409.8048 409.8048 0 0 1 118.9888 288.494933C919.415467 694.340267 737.826133 876.885333 513.979733 876.885333z m0-589.482666a179.882667 179.882667 0 0 0-127.658666 53.384533 181.998933 181.998933 0 0 0 0 256 181.248 181.248 0 0 0 127.658666 53.384533c48.059733 0 94.071467-19.319467 127.658667-53.316266 33.723733-33.9968 52.770133-80.008533 52.770133-128.068267A179.2 179.2 0 0 0 641.706667 340.7872a182.408533 182.408533 0 0 0-127.726934-53.384533z"  horiz-adv-x="1024" />

    
    <glyph glyph-name="tingchechang" unicode="&#59044;" d="M508.928 896c223.982933 0 406.869333-180.701867 406.869333-405.435733 0-101.717333-39.594667-195.925333-103.6288-267.264-1.570133-3.003733-3.072-4.5056-6.144-7.509334a59326.6688 59326.6688 0 0 0-255.931733-270.336c-4.573867-4.573867-9.147733-7.5776-12.219733-10.6496a39.594667 39.594667 0 0 0-45.738667-7.5776 35.976533 35.976533 0 0 0-13.653333 9.079467l-6.144 6.144c-3.003733 1.501867-89.838933 92.5696-263.509334 273.271467-1.570133 3.072-4.573867 6.144-6.144 9.147733C140.219733 296.209067 100.625067 388.778667 100.625067 492.066133 100.625067 715.298133 283.4432 896 508.928 896z m38.0928-212.5824H374.852267v-393.284267h68.608V440.456533h103.560533c28.945067 0 50.312533 4.573867 68.608 12.151467 18.2272 9.079467 31.9488 18.2272 41.096533 30.378667a107.178667 107.178667 0 0 1 19.797334 39.458133c3.072 15.223467 4.573867 27.306667 4.573866 39.5264 0 12.0832-1.501867 25.8048-4.573866 39.458133-4.573867 13.653333-10.6496 27.306667-19.797334 39.458134a107.7248 107.7248 0 0 1-41.096533 30.378666 178.653867 178.653867 0 0 1-68.608 12.151467z m-3.003733-56.183467c9.147733 0 18.295467-1.501867 25.941333-3.072 7.509333-3.003733 15.1552-6.007467 21.2992-10.581333 6.075733-4.573867 12.151467-10.6496 15.223467-19.797333 4.573867-9.079467 6.075733-19.729067 6.075733-31.812267 0-12.151467-1.501867-22.801067-6.144-30.378667a71.953067 71.953067 0 0 0-16.725333-19.797333 77.277867 77.277867 0 0 0-22.869334-10.581333c-7.5776-1.501867-15.223467-3.072-22.801066-3.072H441.890133V627.234133z"  horiz-adv-x="1024" />

    
    <glyph glyph-name="cheliangbianhao" unicode="&#59036;" d="M267.263719 810.306381h642.855744A43.385217 43.385217 0 0 1 953.935838 853.206546c0 25.653868-21.88124 42.792376-43.816375 42.792376H267.317613a43.331323 43.331323 0 0 1-43.708585-42.792376c0-21.450083 21.827345-42.900165 43.654691-42.900165z m857.194887-184.212017l56.858887 4.311575H44.193638c-30.558284 0-43.708586-30.019337-43.708586-60.038674v-642.640166C-3.880417-102.292238 22.366292-128 57.34394-128h1071.480135c30.612178 0 56.858888 25.707762 56.858887 55.727099V570.367265c0 30.019337-26.246709 55.727099-61.224356 55.727099z m-30.612178-664.090248H87.956118V544.659502h1005.89031V-37.995884z m-395.802531 439.457221c46.996161 0 84.075701-15.09051 111.23862-45.702688 25.869446-28.887549 38.80417-67.260561 38.804169-114.68788 0-47.427318-12.934723-85.369173-38.804169-114.256721-27.162919-30.181021-64.242459-45.271531-111.23862-45.271532-47.427318 0-84.506858 15.521668-111.23862 45.702689-25.869446 29.318706-38.373012 67.260561-38.373012 113.825564 0 46.996161 12.503566 84.938016 38.373012 114.256722 26.731761 31.043336 63.811301 46.133846 111.23862 46.133846z m226.357656-248.777843c9.485464 0 17.246298-3.018102 24.144817-9.916621 6.467362-6.467362 9.916621-14.659353 9.916621-24.144817a33.953648 33.953648 0 0 0-9.916621-24.144817 35.408805 35.408805 0 0 0-24.144817-9.485463 32.875755 32.875755 0 0 0-23.713659 9.485463 32.229019 32.229019 0 0 0-9.916621 24.144817c0 9.485464 3.018102 17.677455 9.916621 24.144817a30.073232 30.073232 0 0 0 23.713659 9.916621zM296.205162 395.425133l152.198577-222.046082h1.724629v222.046082h50.876578V87.57872h-49.151948l-153.923206 225.064185h-1.72463V87.57872H245.759741V395.425133h50.445421z m401.838735-38.373012c-31.905651 0-56.481625-10.778936-74.15908-32.336808-16.81514-20.695557-25.007132-48.289633-25.007132-83.644544 0-34.923753 8.191991-62.517829 25.007132-83.213386 17.246298-21.126715 42.253429-31.905651 74.15908-31.90565 31.905651 0 56.481625 10.347779 73.727922 30.612178 16.81514 20.2644 25.438289 48.289633 25.438289 84.506858s-8.623149 64.673616-25.438289 85.369174C754.525522 347.1355 729.949547 357.052121 698.043897 357.052121z m347.674581 406.150309c21.88124 0 43.76248-17.138508 43.76248-42.84627a43.385217 43.385217 0 0 0-43.76248-42.900166H131.664704c-21.827345 0-43.708586 17.246298-43.708586 42.900166 0 21.396188 17.461876 42.846271 43.654691 42.84627z"  horiz-adv-x="1185" />

    
    <glyph glyph-name="chepaihao" unicode="&#59037;" d="M267.263719 810.306381h642.855744A43.385217 43.385217 0 0 1 953.935838 853.206546c0 25.653868-21.88124 42.792376-43.816375 42.792376H267.317613a43.331323 43.331323 0 0 1-43.708585-42.792376c0-21.450083 21.827345-42.900165 43.654691-42.900165z m857.194887-184.212017l56.858887 4.311575H44.193638c-30.558284 0-43.708586-30.019337-43.708586-60.038674v-642.640166C-3.880417-102.292238 22.366292-128 57.34394-128h1071.480135c30.612178 0 56.858888 25.707762 56.858887 55.727099V570.367265c0 30.019337-26.246709 55.727099-61.224356 55.727099z m-30.612178-664.090248H87.956118V544.659502h1005.89031V-37.995884zM953.935838 450.451602c21.827345 0 43.654691-17.138508 43.654691-42.900166a43.439112 43.439112 0 0 0-27.486287-39.828168v-233.202281c15.306089-6.090099 27.486287-20.479978 27.486287-39.720379a43.385217 43.385217 0 0 0-43.654691-42.846271c-19.779348 0-39.504801 13.958722-43.169639 35.570489H266.563088a43.439112 43.439112 0 0 0-43.007955-35.570489c-21.88124 0-43.816375 17.138508-43.816375 42.846271 0 18.863138 16.92293 37.672381 35.839962 41.930061V365.459691a43.007955 43.007955 0 0 0-35.839962 42.091745c0 21.450083 21.935135 42.900165 43.816375 42.900166 21.827345 0 43.654691-17.138508 43.654691-42.900166L267.04814 410.946801h643.340796c1.940208 18.593665 19.617664 36.378909 38.534697 39.127538z m91.78264 312.750828c21.88124 0 43.76248-17.138508 43.76248-42.84627a43.385217 43.385217 0 0 0-43.76248-42.900166H131.664704c-21.827345 0-43.708586 17.246298-43.708586 42.900166 0 21.396188 17.461876 42.846271 43.654691 42.84627z"  horiz-adv-x="1185" />

    
    <glyph glyph-name="shifouxianshimokuai" unicode="&#59038;" d="M147.9168 617.8816a86.6304 86.6304 0 0 0 86.3744 86.8864h606.976c47.7184 0 86.4768-37.9392 86.4768-86.8864v-432.7424a86.6304 86.6304 0 0 0-86.4256-86.8864H234.3936a86.016 86.016 0 0 0-86.528 85.6064V617.8816zM1075.6608 896v-244.9408L830.6176 896h245.0432-0.1024zM0 896h244.9408L0 651.0592V896z m0-988.9792v244.9408l245.0432-245.0432H0v0.1024z m1075.6096 0h-244.9408l245.0432 245.0432v-245.0432h-0.1024z"  horiz-adv-x="1126" />

    
    <glyph glyph-name="quanping" unicode="&#59039;" d="M0 272.469333V777.045333A118.826667 118.826667 0 0 0 118.741333 896H890.453333a118.741333 118.741333 0 0 0 118.698667-118.741333V5.546667a118.741333 118.741333 0 0 0-118.698667-118.698667H118.741333A118.741333 118.741333 0 0 0 0 5.546667v266.922666z m212.565333-207.530666H415.146667a34.261333 34.261333 0 0 1 34.048 33.749333 34.602667 34.602667 0 0 1-34.688 35.114667H293.205333l121.898667 123.52a34.858667 34.858667 0 0 1 0 48.682666 33.792 33.792 0 0 1-48.085333 0L246.101333 183.466667v123.477333A34.346667 34.346667 0 0 1 212.736 341.333333c-19.072 0.426667-34.645333-15.701333-34.645333-35.114666v-206.378667a34.730667 34.730667 0 0 1 34.474666-34.901333z m382.208 584.106666h121.258667l-122.026667-123.52a34.858667 34.858667 0 0 1 0-48.725333 33.792 33.792 0 0 1 48.128 0l120.96 122.581333v-123.562666c0-18.773333 14.933333-34.048 33.28-34.432 19.114667-0.426667 34.688 15.701333 34.688 35.114666V682.794667a34.858667 34.858667 0 0 1-34.645333 35.114666h-202.368a34.261333 34.261333 0 0 1-34.005333-33.749333 34.730667 34.730667 0 0 1 34.730666-35.157333z"  horiz-adv-x="1024" />

    
    <glyph glyph-name="zhandianmingcheng" unicode="&#59040;" d="M942.08 896H81.92C40.96 896 0 865.28 0 814.08v-471.04c0-40.96 40.96-81.92 81.92-81.92h337.92V-128h174.08v399.36h337.92c40.96 0 81.92 30.72 81.92 81.92v460.8C1024 865.28 983.04 896 942.08 896z m10.24-256c0-10.24-10.24-10.24-10.24-10.24H81.92c-10.24 0-10.24 10.24-10.24 10.24V814.08c0 10.24 10.24 10.24 10.24 10.24h860.16c10.24 0 10.24-10.24 10.24-10.24V640zM133.12 752.64h256V691.2h-256z"  horiz-adv-x="1024" />

    
    <glyph glyph-name="yuan" unicode="&#59041;" d="M1094.097455 45.149091L655.825455 824.552727c-53.620364 95.325091-141.125818 95.325091-194.746182 0L22.900364 45.195636C-30.72-50.315636 13.125818-128 120.180364-128h876.730181c107.054545 0 150.900364 77.730909 97.28 173.149091h-0.09309zM498.222545 603.461818c15.173818 17.268364 37.236364 26.903273 60.229819 26.298182 24.436364 0 44.404364-8.610909 60.229818-25.832727 15.918545-17.780364 24.343273-41.006545 23.552-64.884364 0-22.341818-32.768-186.647273-43.659637-306.176h-78.708363c-9.588364 119.528727-45.009455 283.787636-45.009455 306.176-0.093091 25.6 7.68 47.104 23.365818 64.418909z m119.296-568.273454c-15.36-16.104727-36.770909-25.134545-59.112727-24.901819a80.523636 80.523636 0 0 0-59.019636 24.901819 81.687273 81.687273 0 0 0-24.808727 60.043636c0 23.412364 8.238545 43.659636 24.808727 60.602182 15.220364 16.384 36.677818 25.6 59.066182 25.367273 22.807273 0 42.496-8.424727 59.112727-25.367273 16.058182-16.011636 24.948364-37.888 24.669091-60.555637 0.418909-22.574545-8.517818-44.311273-24.669091-60.090181z"  horiz-adv-x="1117" />

    
    <glyph glyph-name="tuichuquanping" unicode="&#59042;" d="M0 272.469333V777.045333A118.826667 118.826667 0 0 0 118.741333 896H890.453333a118.741333 118.741333 0 0 0 118.698667-118.741333V5.546667a118.741333 118.741333 0 0 0-118.698667-118.698667H118.741333A118.741333 118.741333 0 0 0 0 5.546667v266.922666zM414.634667 341.333333H212.096a34.261333 34.261333 0 0 1-34.005333-33.749333 34.602667 34.602667 0 0 1 34.645333-35.114667h121.258667L212.096 148.906667a34.858667 34.858667 0 0 1 0-48.725334 33.792 33.792 0 0 1 48.085333 0l120.96 122.624v-123.477333c0-18.773333 14.933333-34.048 33.322667-34.432 19.072-0.426667 34.688 15.701333 34.688 35.114667v206.378666A34.730667 34.730667 0 0 1 414.634667 341.333333z m381.696 168.96h-121.258667l122.026667 123.52a34.858667 34.858667 0 0 1 0 48.682667 33.792 33.792 0 0 1-48.128 0L628.053333 559.914667V683.477333c0 18.773333-14.933333 34.090667-33.28 34.432-19.114667 0.426667-34.688-15.658667-34.688-35.072v-206.293333c0-19.456 15.488-35.157333 34.645334-35.157333h202.368a34.261333 34.261333 0 0 1 34.005333 33.792 34.730667 34.730667 0 0 1-34.730667 35.157333v-0.042667z"  horiz-adv-x="1024" />

    
    <glyph glyph-name="weilan" unicode="&#59043;" d="M819.2 742.4H204.8a51.2 51.2 0 0 0-51.2-51.2v-614.4a51.2 51.2 0 0 0 51.2-51.2h614.4a51.2 51.2 0 0 0 51.2 51.2V691.2a51.2 51.2 0 0 0-51.2 51.2z m0 102.4A51.2 51.2 0 0 0 870.4 896h102.4A51.2 51.2 0 0 0 1024 844.8v-102.4a51.2 51.2 0 0 0-51.2-51.2v-614.4a51.2 51.2 0 0 0 51.2-51.2v-102.4a51.2 51.2 0 0 0-51.2-51.2h-102.4a51.2 51.2 0 0 0-51.2 51.2H204.8A51.2 51.2 0 0 0 153.6-128H51.2A51.2 51.2 0 0 0 0-76.8v102.4a51.2 51.2 0 0 0 51.2 51.2V691.2A51.2 51.2 0 0 0 0 742.4V844.8A51.2 51.2 0 0 0 51.2 896h102.4a51.2 51.2 0 0 0 51.2-51.2h614.4zM153.6 74.938182H51.2h102.4zM358.4 588.8h307.2a51.2 51.2 0 0 0 51.2-51.2v-307.2a51.2 51.2 0 0 0-51.2-51.2H358.4a51.2 51.2 0 0 0-51.2 51.2V537.6a51.2 51.2 0 0 0 51.2 51.2z"  horiz-adv-x="1024" />

    
    <glyph glyph-name="online-bus" unicode="&#59045;" d="M842.441426-24.939295v-67.373319c0-19.262814-15.447474-35.315158-33.96583-35.315158H709.602459c-18.518357 0-33.965831 16.052345-33.965831 35.315158v67.373319H348.075741v-67.373319c0-19.262814-15.447474-35.315158-33.965831-35.315158H215.236773c-18.518357 0-33.965831 16.052345-33.96583 35.315158v67.373319c-37.083242 0-64.907306 32.104689-64.907307 67.373319V761.206834c0 38.525627 61.789895 67.419847 98.873137 67.419847C215.236773 828.626681 348.075741 896 511.856185 896c166.851327 0 330.585242-67.373319 330.585241-67.373319 37.083242 0 64.907306-32.104689 64.907307-67.419847v-718.77281c0-35.26863-30.894947-67.373319-64.907307-67.373319zM264.696606 77.749182c46.342421 0 83.379135 38.479099 83.379135 86.636132 0 48.110505-37.036714 86.636132-83.379135 86.636133-46.388949 0-83.425663-38.525627-83.425663-86.636133 0-48.157034 37.036714-86.636132 83.425663-86.636132zM644.695152 831.790622H382.0881c-18.564885 0-33.965831-16.052345-33.96583-35.315159 0-19.262814 15.400945-35.315158 33.96583-35.315158h262.607052c18.564885 0 33.965831 16.052345 33.965831 35.361687-3.024355 19.216285-15.400945 35.26863-33.965831 35.26863z m197.746274-205.376954c0 19.262814-15.447474 35.315158-33.96583 35.315158H215.236773c-18.518357 0-33.965831-16.052345-33.96583-35.361687v-205.330425c0-19.262814 15.447474-35.315158 33.96583-35.315158h593.238823c18.518357 0 33.965831 16.052345 33.96583 35.361686V626.413668z m-83.425663-375.485278c-46.342421 0-83.379135-38.479099-83.379135-86.589604 0-48.157034 37.036714-86.636132 83.425663-86.636132 46.342421 0 83.379135 38.479099 83.379135 86.636132 0 48.110505-37.036714 86.636132-83.425663 86.636132z"  horiz-adv-x="1024" />

    
    <glyph glyph-name="shouqi1" unicode="&#58956;" d="M961.03211-31.744H59.21111c-29.593 0-59.185-18.022-59.185-48.128S22.24611-128 59.21111-128h901.82c29.593 0 59.086 18.022 59.086 48.128s-29.493 48.128-59.085 48.128z m21.621 305.869H390.90411c-19.33 0-38.859-18.125-38.859-48.128 0-30.106 14.647-48.128 38.86-48.128H982.75311c19.33 0 38.759 18.022 38.759 48.128 0 30.003-19.43 48.128-38.86 48.128h0.001z m2.491 297.165H393.39511c-19.43 0-38.859-18.022-38.859-48.128s14.647-48.128 38.86-48.128H985.24311c19.33 0 38.759 18.022 38.759 48.128s-19.43 48.128-38.86 48.128h0.001zM964.81811 896H62.99711C33.40511 896 3.81211 877.978 3.81211 847.872s22.22-48.128 59.185-48.128h901.821c29.593 0 59.185 18.022 59.185 48.128S994.41111 896 964.81811 896zM167.81511 171.827s61.477-63.18 61.477 27.034V556.237c0 12.288 0.797 40.652-7.971 43.417-8.868 2.765-30.29-10.65-38.56-17.92L27.32611 442.368s-61.477-63.078 0-126.259l140.49-144.384v0.102z"  horiz-adv-x="1024" />

    
    <glyph glyph-name="menuUp" unicode="&#59123;" d="M938.668 533.333v85.334h-853.334v-85.334h853.334zM938.667 320v85.334h-853.334v-85.334h853.334zM938.667 106.667v85.334h-853.334v-85.334h853.334z"  horiz-adv-x="1024" />

    
    <glyph glyph-name="console" unicode="&#58899;" d="M1008.446751 853.456597c45.373267-197.50581-8.621861-412.93533-162.151381-566.48285a604.26324 604.26324 0 0 0-69.621875-59.695036c-6.967887-5.129917-11.821809-12.464799-13.899776-20.866663-19.854679-80.174705-61.753003-157.444457-125.877966-221.570421a485.222163 485.222163 0 0 0-95.691455-74.401798c-29.617522-17.539717-64.548957 12.519798-52.61715 44.803276 18.825696 50.943177 28.073547 105.986288 28.109546 162.721372-4.815922-0.789987-9.595845-1.929969-14.430767-2.609958a2439.977589 2439.977589 0 0 0-134.409829 124.517989 2446.614481 2446.614481 0 0 0-124.517988 134.408829c0.679989 4.835922 1.819971 9.615845 2.609957 14.449767-56.734084-0.035999-111.778195-9.28285-162.721371-28.109546-32.283479-11.930807-62.341993 22.999629-44.803277 52.61715a485.112164 485.112164 0 0 0 74.402799 95.673454c64.142964 64.142964 141.394716 106.041287 221.58842 125.896967 8.401864 2.076966 15.736746 6.912888 20.866663 13.898775a604.26324 604.26324 0 0 0 59.694036 69.621876C568.486858 871.8413 783.935378 925.836428 981.440187 880.463161a36.180416 36.180416 0 0 0 27.006564-27.006564zM761.027748 459.364963c47.965225 47.965225 47.965225 125.731969 0 173.697194-47.965225 47.965225-125.731969 47.965225-173.697195 0-47.965225-47.965225-47.965225-125.731969 0-173.697194 47.965225-47.965225 125.731969-47.965225 173.697195 0zM158.107486 192.808268c37.209399 37.228399 103.817323 30.9775 148.748598-13.972774 44.932274-44.913275 51.183173-111.502199 13.953774-148.730598C283.581459-7.105502999999999 52.910185-164.95495299999993 7.979911-120.02367900000002c-44.932274 44.931274 112.899176 275.601548 150.127575 312.830947z"  horiz-adv-x="1024" />

    
    <glyph glyph-name="ibds-un" unicode="&#58900;" d="M210.519431 662.752063c0-38.543507-31.264566-69.791083-69.791083-69.791083-38.50253 0-69.767097 31.247576-69.767097 69.791083 0 38.52052 31.264566 69.768096 69.767097 69.768096 38.526517 0 69.791083-31.22259 69.791083-69.768096z m778.565858-485.741142c0-38.550504-31.25857-69.77909-69.803076-69.77909-38.495534 0-69.755103 31.228586-69.755103 69.77909 0 38.527516 31.259569 69.780089 69.755103 69.780089 38.544507 0 69.803077-31.252573 69.803076-69.780089zM355.893368 806.932665a46.51906 46.51906 0 1 0-93.03912 0c0 25.691674 20.828386 46.52006 46.519061 46.52006 25.692673 0 46.52006-20.828386 46.520059-46.52006z m505.718003-797.555269a46.51906 46.51906 0 1 0-93.03912 0c0 25.691674 20.828386 46.52006 46.519061 46.52006 25.692673 0 46.52006-20.828386 46.520059-46.52006zM279.118179 835.356816c77.180963 41.081092 163.905603 61.74557 251.666667 59.966561 134.568962-3.032309 259.903074-56.845302 352.973176-151.521509 93.048115-94.697195 142.600484-218.842969 139.538191-349.610051-1.814988-77.309891-22.439487-152.567926-61.35079-223.658284-4.606431-11.547561-16.540777-19.417173-30.584945-19.417173-19.195296 0.401776-33.761174 15.381423-33.376389 33.416366 0.090949 2.47462 0.612658 4.436526 1.021431 5.885718l0.044974 2.808434 1.634089 3.054297c34.011035 59.052072 52.093952 125.082252 53.750028 196.283549C957.067143 505.317851 914.320979 612.344171 834.091717 693.911688 753.772504 775.547167 645.454904 821.936299 529.082795 824.566832c-74.079692 1.558131-147.339841-15.483366-212.845314-49.510392l-37.119302 60.300376zM145.861486 625.36691A436.307707 436.307707 0 0 1 72.190566 392.730632C69.472082 274.17474000000004 113.617465 161.711452 196.474263 75.95727c82.950745-85.777169 194.815368-134.534981 314.975364-137.276452 95.368821-2.483615 187.410497 26.031484 268.134484 81.442586 5.552904 6.021642 13.75433 9.301813 23.292012 9.301813 19.822946-0.421765 34.866558-16.165986 34.46778-35.120416a33.081553 33.081553 0 0 0-9.653617-22.868249c-91.315081-65.416523-196.595375-99.436552-305.602591-99.436552-4.05374 0-8.107479 0.045974-12.184205 0.139922C222.320851-121.22877600000004-6.377623 115.06246399999998 0.136744 398.893195 2.362503 495.705211 32.355778 586.121793 82.383882 662.83002l63.477604-37.46411z m572.034024-468.880544v-38.021799c0-10.863942-9.052952-19.916894-19.916894-19.916894h-57.937693c-10.863942 0-19.916894 9.052952-19.916894 19.916894v38.021799H428.202048v-38.021799c0-10.863942-9.052952-19.916894-19.916894-19.916894h-57.937693c-10.863942 0-19.916894 9.052952-19.916894 19.916894v38.021799c-21.727884 0-38.022798 18.105904-38.022798 38.022797V600.0780110000001c0 21.727884 36.211808 38.022798 57.938692 38.022798 0 0 77.855586 38.021798 173.816077 38.021798 97.770481 0 193.731972-38.021798 193.731972-38.021798 21.726885 0 38.021798-18.105904 38.021799-38.022798v-405.568848c0-19.916894-18.105904-38.022798-38.021799-38.022797z m-338.578203 57.938692c27.157856 0 48.88574 21.727884 48.88574 48.88574 0 27.158856-21.727884 48.88574-48.88574 48.885741-27.158856 0-48.88574-21.727884-48.885741-48.885741 0-27.158856 21.726885-48.88574 48.885741-48.88574z m222.700818 425.485742H448.118942c-10.863942 0-19.915895-9.052952-19.915895-19.915895 0-10.863942 9.051952-19.916894 19.915895-19.916894h153.899183c10.863942 0 19.915895 9.052952 19.915894 19.916894-1.809991 10.863942-9.052952 19.915895-19.915894 19.915895z m115.877385-115.876386c0 10.863942-9.052952 19.915895-19.916894 19.915895H350.347461c-10.863942 0-19.915895-9.052952-19.915895-19.915895v-115.877384c0-10.863942 9.052952-19.915895 19.915895-19.915895h347.631155c10.863942 0 19.916894 9.051952 19.916894 19.915895V524.034414zM669.009769 312.19553900000005c-27.158856 0-48.88574-21.727884-48.88574-48.88574 0-27.158856 21.726885-48.88574 48.88574-48.885741 27.158856 0 48.88574 21.727884 48.885741 48.885741 0 27.158856-21.727884 48.88574-48.885741 48.88574z"  horiz-adv-x="1024" />

    
    <glyph glyph-name="video" unicode="&#58901;" d="M641.358 550.358C676.014 515.817 695 469.838 695 421c0-48.838-18.986-94.817-53.642-129.358C606.817 256.986 560.838 238 512 238c-48.838 0-94.817 18.986-129.358 53.642C347.986 326.183 329 372.16200000000003 329 421c0 48.838 18.986 94.817 53.642 129.358C417.183 585.014 463.162 604 512 604c48.838 0 94.817-18.986 129.358-53.642zM512 311.20000000000005c60.619 0 109.8 49.181 109.8 109.8S572.619 530.8 512 530.8 402.2 481.619 402.2 421 451.381 311.20000000000005 512 311.20000000000005z m476 109.31c0-192.435-114.39-358.131-278.832-432.98 80.907-24.683 155.415-64.336 220.323-115.53H95.509c64.794 51.194 139.302 90.847 220.323 115.53C151.39 62.37900000000002 37 228.07500000000005 37 420.51 37 683.11 249.895 896 512.5 896S988 683.11 988 420.51zM512.5 164.53999999999996c141.359 0 255.977 114.616 255.977 255.971 0 141.356-114.618 255.972-255.977 255.972S256.523 561.866 256.523 420.51c0-141.355 114.618-255.971 255.977-255.971z"  horiz-adv-x="1024" />

    
    <glyph glyph-name="security" unicode="&#58988;" d="M926.042 751.77C938.657 740.1469999999999 946.5 722.74 946.5 705.306v-160.64c0-592.333-406.703-668.775-424.245-671.693-3.896-0.973-7.843-0.973-11.738-0.973-3.87 0-7.791 0-11.687 0.973C482.242-124.11000000000001 77.5-47.692999999999984 77.5 544.6659999999999v160.64c0 17.433 7.79 34.841 21.438 46.464 12.667 11.622 28.274 17.433 45.843 17.433h3.895c0.98 0 11.687-0.973 29.255-0.973 27.294 0 82.888 1.946 134.587 14.516C390.557 801.152 470.53 883.405 473.445 885.35 485.157 892.134 497.825 896 510.491 896c12.692 0 26.365-3.866 37.071-10.65 22.444-14.54 99.503-87.142 165.855-102.604 51.673-12.57 105.306-14.516 133.607-14.516 16.588 0 27.32 0.973 28.3 0.973h4.876c16.536 0 33.15-5.811 45.842-17.433zM510.43 586c-112.071 0-201.153-88.951-201.153-200.858v-200.857h402.306V385.142C711.583 497.05 622.5 586 510.43 586z m140.24-341.333H371.35V384.303c0 76.8 62.847 139.636 139.66 139.636 76.814 0 139.661-62.836 139.661-139.636v-139.636z m-159.134 45.606l90.616 106.765H505.88l19.344 64.538-81.835-93.091h73.306l-25.159-78.212z"  horiz-adv-x="1024" />

    
    <glyph glyph-name="app" unicode="&#58998;" d="M858-108.75699999999995c0-10.553-8.686-19.243-19.234-19.243H185.234C174.686-128 166-119.30999999999995 166-108.75699999999995V876.757C166 887.31 174.686 896 185.234 896h653.325c10.548 0 19.234-8.69 19.234-19.243v-985.514H858z m-89.563 163.805h-0.15v715.59c0 7.663-6.309 13.973-13.97 13.973H279.803c-7.66 0-13.97-6.31-13.97-13.972v-715.591c0-7.662 6.31-13.972 13.97-13.972h474.665c7.66 0 13.97 6.31 13.97 13.972z m-251.302-135.55c21.33 0 38.905 17.428 38.755 38.762 0 21.334-17.425 38.762-38.755 38.762-21.33 0-38.754-17.428-38.754-38.762s17.424-38.762 38.754-38.762z m90.878 898.46c8.261 0 15.02 6.76 15.02 15.023s-6.759 15.024-15.02 15.024H426.258c-8.261 0-15.02-6.76-15.02-15.024 0-8.263 6.759-15.024 15.02-15.024h181.755zM365.14 549.832c5.036 6.166 10.072 11.912 15.108 17.238a161.989 161.989 0 0 0 12.38 13.454c4.337 4.205 7.624 7.288 9.863 9.25a68.035 68.035 0 0 0 9.862 6.727c3.497 1.962 8.183 2.944 14.059 2.944H607.71c3.637 0 7.833-0.771 12.59-2.313 4.756-1.542 9.372-4.695 13.849-9.46 2.238-2.803 5.176-6.307 8.813-10.511 3.637-4.205 7.134-8.269 10.492-12.193a355.986 355.986 0 0 0 11.75-15.136H365.141z m340.771-125.714c0-8.97-2.938-16.538-8.813-22.704-5.875-6.167-14.269-9.25-25.18-9.25H361.784c-10.632 0-19.095 3.083-25.39 9.25-6.295 6.166-9.443 13.734-9.443 22.704v60.124c0 8.97 2.798 16.678 8.394 23.124 5.595 6.447 14.688 9.67 27.278 9.67H671.5c12.87 0 21.823-3.223 26.86-9.67 5.035-6.446 7.553-14.155 7.553-23.124v-60.124zM547.697 454.39c0 3.644-0.91 6.237-2.728 7.778-1.818 1.542-4.266 2.313-7.344 2.313h-42.387c-3.077 0-5.595-0.981-7.554-2.943-1.958-1.962-2.937-4.345-2.937-7.148 0.28-3.644 1.329-6.307 3.147-7.988 1.819-1.682 4.267-2.523 7.344-2.523h42.387c6.435 0 9.792 3.504 10.072 10.511z m156.956-182.474c0-8.97-3.427-16.678-10.282-23.125-6.854-6.447-15.597-9.53-26.23-9.25H360.526c-8.953 0-16.997 3.154-24.131 9.46-7.135 6.307-10.702 15.066-10.702 26.278v56.34c0 9.25 2.868 17.028 8.604 23.335 5.735 6.307 14.898 9.46 27.488 9.46H669.82c11.75 0 20.493-3.153 26.229-9.46 5.735-6.307 8.603-13.945 8.603-22.914v-60.124z m-158.215 29.852c0 2.803-0.91 5.185-2.728 7.147-1.818 1.962-4.266 2.943-7.344 2.943h-42.387c-3.077 0-5.595-0.98-7.554-2.943-1.958-1.962-2.937-4.344-2.937-7.147s0.979-5.186 2.937-7.148c1.959-1.962 4.477-2.943 7.554-2.943h42.387c3.078 0 5.526 0.98 7.344 2.943 1.819 1.962 2.728 4.345 2.728 7.148z"  horiz-adv-x="1024" />

    
    <glyph glyph-name="ibds-old" unicode="&#59011;" d="M512 896c271.44192 0 491.52-220.07808 491.52-491.52v-5.65248c0-271.44192-220.07808-491.52-491.52-491.52s-491.52 220.07808-491.52 491.52V404.48C20.48 675.92192 240.55808 896 512 896z m11.96032-206.19264c-92.16 0-166.95296-36.74112-166.95296-36.74112-20.8896 0-55.66464-15.7696-55.66464-36.74112v-391.82336a36.864 36.864 0 0 1 36.53632-36.70016v-36.74112c0-10.48576 8.68352-19.2512 19.12832-19.2512h55.66464a19.37408 19.37408 0 0 1 19.12832 19.2512v36.74112h184.32v-36.74112c0-10.48576 8.72448-19.2512 19.12832-19.2512h55.66464a19.37408 19.37408 0 0 1 19.12832 19.2512v36.74112c19.12832 0 36.53632 17.48992 36.53632 36.70016V616.32512a36.864 36.864 0 0 1-36.53632 36.74112s-92.16 36.74112-186.08128 36.74112z m-139.14112-351.60064c26.09152 0 46.98112-20.97152 46.98112-47.22688 0-26.2144-20.8896-47.22688-46.98112-47.22688A46.8992 46.8992 0 0 0 337.92 291.0208c0 26.2144 20.8896 47.22688 46.94016 47.22688z m278.28224 0c26.09152 0 46.94016-20.97152 46.94016-47.22688 0-26.2144-20.8896-47.22688-46.94016-47.22688a46.8992 46.8992 0 0 0-46.98112 47.22688c0 26.2144 20.8896 47.22688 46.98112 47.22688z m27.81184 223.88736c10.4448 0 19.12832-8.72448 19.12832-19.2512v-111.94368c0-10.48576-8.68352-19.2512-19.12832-19.2512H357.00736a19.37408 19.37408 0 0 0-19.12832 19.2512V542.8428799999999c0 10.52672 8.68352 19.2512 19.12832 19.2512z m-92.16 92.69248c10.40384 0 17.36704-8.72448 19.12832-19.2512 0-10.4448-8.72448-19.21024-19.12832-19.21024h-147.8656a19.37408 19.37408 0 0 0-19.08736 19.2512c0 10.48576 8.68352 19.2512 19.12832 19.2512z"  horiz-adv-x="1024" />

    
    <glyph glyph-name="home" unicode="&#59013;" d="M525.669572 895.987979c-14.29131 0-28.582621-4.897334-38.777979-14.602959L17.192759 445.655874A47.459617 47.459617 0 0 1 4.504212 388.891323c9.037807-19.500293 28.315494-31.031288 50.48706-31.031287H105.567374c14.380353 0 25.866827-10.99674 25.866826-24.353106v-379.676934c0-28.048366 24.620233-51.199399 54.761097-51.199399h191.263146c30.096342 0 54.716575 23.151033 54.716575 51.199399v175.992369c0 13.489929 11.486474 24.353105 25.866826 24.353105h134.67668c14.424874 0 25.911348-10.99674 25.911348-24.353105v-176.125933c0-28.048366 24.620233-51.199399 55.339872-51.199399h191.307668c30.719639 0 56.00769 23.151033 56.00769 51.199399v379.187201c0 7.256958 1.780849 12.154292 7.256958 17.096147a28.137409 28.137409 0 0 0 18.609869 6.678183h47.459617c22.305129 0 41.404731 12.198813 50.487059 31.075809 10.23988 20.034547 5.342546 42.740368-10.23988 57.343327L564.581116 881.38502A56.675509 56.675509 0 0 1 525.669572 895.987979z"  horiz-adv-x="1068" />

    
    <glyph glyph-name="ziyuanguanli-un" unicode="&#59014;" d="M8.044954 103.83360000000005c6.30784 19.33312 19.00544 25.8048 38.01088 19.33312l462.4384-193.20832 462.4384 193.20832c19.0464 6.43072 38.05184-6.43072 50.70848-19.33312 6.3488-12.86144 0-32.19456-19.00544-38.62528L527.499674-128h-25.31328L27.050394 65.20831999999996c-19.00544 6.43072-25.35424 19.33312-19.00544 38.62528zM1.655194 361.472c6.3488 12.86144 25.35424 25.76384 44.35968 19.29216l462.4384-193.20832 468.7872 186.7776c12.6976 6.43072 31.70304 0 38.01088-19.33312 6.3488-12.86144 0-32.19456-19.00544-38.62528l-475.136-193.20832h-25.31328L20.701594 316.41600000000005c-12.6976 6.43072-25.35424 25.76384-19.00544 45.056zM513.573274 896c9.4208-0.12288 14.82752-0.90112 20.2752-6.43072L977.281434 664.1664000000001c25.35424-12.9024 38.01088-32.23552 38.01088-57.9584 0-25.8048-12.65664-45.09696-38.01088-57.99936l-443.43296-225.40288c-6.3488-6.43072-12.6976-6.43072-25.35424-6.43072h-5.03808c-9.4208 0.12288-14.86848 0.94208-20.2752 6.43072L39.707034 548.2496C14.352794 561.11104 1.696154 580.44416 1.696154 606.2080000000001c0 25.72288 12.6976 45.056 38.01088 57.9584L483.180954 889.56928C489.488794 896 495.837594 896 508.494234 896z m-5.07904-64.38912L65.061274 606.2080000000001l443.43296-225.44384 443.47392 225.44384-443.47392 225.40288z"  horiz-adv-x="1024" />

    
    <glyph glyph-name="ziyuanguanli" unicode="&#59016;" d="M8.044954 103.83360000000005c6.30784 19.33312 19.00544 25.8048 38.01088 19.33312l462.4384-193.20832 462.4384 193.20832c19.0464 6.43072 38.05184-6.43072 50.70848-19.33312 6.3488-12.86144 0-32.19456-19.00544-38.62528L527.499674-128h-25.31328L27.050394 65.20831999999996c-19.00544 6.43072-25.35424 19.33312-19.00544 38.62528zM1.655194 361.472c6.3488 12.86144 25.35424 25.76384 44.35968 19.29216l462.4384-193.20832 468.7872 186.7776c12.6976 6.43072 31.70304 0 38.01088-19.33312 6.3488-12.86144 0-32.19456-19.00544-38.62528l-475.136-193.20832h-25.31328L20.701594 316.41600000000005c-12.6976 6.43072-25.35424 25.76384-19.00544 45.056zM513.573274 896c9.4208-0.12288 14.82752-0.90112 20.2752-6.43072L977.281434 664.1664000000001c25.35424-12.9024 38.01088-32.23552 38.01088-57.9584 0-25.8048-12.65664-45.09696-38.01088-57.99936l-443.43296-225.40288c-6.3488-6.43072-12.6976-6.43072-25.35424-6.43072h-5.03808c-9.4208 0.12288-14.86848 0.94208-20.2752 6.43072L39.707034 548.2496C14.352794 561.11104 1.696154 580.44416 1.696154 606.2080000000001c0 25.72288 12.6976 45.056 38.01088 57.9584L483.180954 889.56928C489.488794 896 495.837594 896 508.494234 896z"  horiz-adv-x="1024" />

    
    <glyph glyph-name="home-un" unicode="&#59017;" d="M525.669572 812.110007l408.259556-378.652946a103.066616 103.066616 0 0 1-55.918648-25.065445l-0.222606-0.267127-0.267128-0.267127c-15.048171-13.578971-32.9457-37.531386-32.9457-75.196335v-352.608035h-149.413203v149.813894a102.265234 102.265234 0 0 1-102.398797 101.953586h-134.721202a102.354277 102.354277 0 0 1-102.398797-101.953586v-149.724851H207.966171v353.320374a102.309755 102.309755 0 0 1-89.131475 101.196725l406.834876 377.450873z m0 83.877972c-14.29131 0-28.582621-4.897334-38.777979-14.602959L17.192759 445.655874A47.459617 47.459617 0 0 1 4.504212 388.891323c9.037807-19.500293 28.315494-31.031288 50.48706-31.031287H105.567374c14.380353 0 25.866827-10.99674 25.866826-24.353106v-379.676934c0-28.048366 24.620233-51.199399 54.761097-51.199399h191.263146c30.096342 0 54.716575 23.151033 54.716575 51.199399v175.992369c0 13.489929 11.486474 24.353105 25.866826 24.353105h134.67668c14.424874 0 25.911348-10.99674 25.911348-24.353105v-176.125933c0-28.048366 24.620233-51.199399 55.339872-51.199399h191.307668c30.719639 0 56.00769 23.151033 56.00769 51.199399v379.187201c0 7.256958 1.780849 12.154292 7.256958 17.096147a28.137409 28.137409 0 0 0 18.609869 6.678183h47.459617c22.305129 0 41.404731 12.198813 50.487059 31.075809 10.23988 20.034547 5.342546 42.740368-10.23988 57.343327L564.581116 881.38502A56.675509 56.675509 0 0 1 525.669572 895.987979z"  horiz-adv-x="1068" />

    
    <glyph glyph-name="console-un" unicode="&#59018;" d="M522.007273-81.40800000000002a30.021818 30.021818 0 0 0-30.021818 31.371636l9.029818 196.608c-30.487273 17.221818-95.185455 56.32-142.801455 103.936-48.128 48.174545-90.810182 117.015273-109.102545 148.340364l-196.980364-9.029818a30.021818 30.021818 0 0 0-29.137454 41.146182 405.271273 405.271273 0 0 0 76.706909 115.432727c66.094545 69.352727 147.549091 100.305455 236.450909 90.298182 75.729455 92.951273 156.392727 161.978182 239.988363 205.125818C633.390545 871.330909 692.037818 888.506182 750.173091 892.602182c66.373818 4.747636 133.259636-7.307636 198.842182-35.84 6.981818-2.978909 12.520727-8.517818 15.546182-15.499637 28.718545-66.094545 40.727273-133.585455 35.700363-200.517818-4.421818-58.600727-22.016-117.573818-52.130909-175.197091-44.032-83.968-114.036364-164.910545-208.197818-240.779636 7.074909-86.341818-24.994909-165.376-93.556364-229.469091a404.107636 404.107636 0 0 0-113.198545-74.472727 30.021818 30.021818 0 0 0-11.170909-2.234182zM266.193455 459.636364c10.984727 0 21.131636-6.050909 26.344727-15.685819 0.512-0.930909 51.665455-94.487273 108.171636-150.993454 56.273455-56.273455 144.011636-101.888 144.942546-102.353455 10.379636-5.352727 16.756364-16.290909 16.197818-27.973818l-7.447273-162.769454a343.831273 343.831273 0 0 1 52.317091 40.401454c58.042182 55.016727 82.245818 120.087273 71.866182 193.442909a30.021818 30.021818 0 0 0 11.217454 27.834182 938.775273 938.775273 0 0 1 111.429819 101.794909c39.284364 42.635636 70.795636 86.388364 93.696 130.001455 26.391273 50.362182 41.704727 101.469091 45.521454 151.877818 4.002909 53.434182-4.840727 107.566545-26.344727 161.140364-53.061818 21.271273-106.682182 30.161455-159.650909 26.437818-50.036364-3.584-100.817455-18.478545-150.807273-44.311273-43.426909-22.434909-86.993455-53.434182-129.396364-92.16A930.443636 930.443636 0 0 1 372.363636 586.0072729999999a30.021818 30.021818 0 0 0-28.625454-11.031273c-75.729455 13.125818-142.801455-10.007273-199.400727-68.654545a343.04 343.04 0 0 1-42.216728-54.132364l162.722909 7.447273 1.396364 0.046545z m382.789818-46.964364a128.558545 128.558545 0 1 0 90.903272 37.701818c-24.017455-24.203636-56.785455-37.794909-90.903272-37.701818z m0 197.12a68.561455 68.561455 0 1 1 48.500363-117.015273 68.561455 68.561455 0 0 1-48.500363 117.015273z m-126.976-691.2a30.021818 30.021818 0 0 0-30.021818 31.371636l9.029818 196.608c-30.487273 17.221818-95.185455 56.32-142.801455 103.936-48.128 48.174545-90.810182 117.015273-109.102545 148.340364l-196.980364-9.029818a30.021818 30.021818 0 0 0-29.137454 41.146182 405.271273 405.271273 0 0 0 76.706909 115.432727c66.094545 69.352727 147.549091 100.305455 236.450909 90.298182 75.729455 92.951273 156.392727 161.978182 239.988363 205.125818C633.390545 871.330909 692.037818 888.506182 750.173091 892.602182c66.373818 4.747636 133.259636-7.307636 198.842182-35.84 6.981818-2.978909 12.520727-8.517818 15.546182-15.499637 28.718545-66.094545 40.727273-133.585455 35.700363-200.517818-4.421818-58.600727-22.016-117.573818-52.130909-175.197091-44.032-83.968-114.036364-164.910545-208.197818-240.779636 7.074909-86.341818-24.994909-165.376-93.556364-229.469091a404.107636 404.107636 0 0 0-113.198545-74.472727 30.021818 30.021818 0 0 0-11.170909-2.234182zM266.193455 459.636364c10.984727 0 21.131636-6.050909 26.344727-15.685819 0.512-0.930909 51.665455-94.487273 108.171636-150.993454 56.273455-56.273455 144.011636-101.888 144.942546-102.353455 10.379636-5.352727 16.756364-16.290909 16.197818-27.973818l-7.447273-162.769454a343.831273 343.831273 0 0 1 52.317091 40.401454c58.042182 55.016727 82.245818 120.087273 71.866182 193.442909a30.021818 30.021818 0 0 0 11.217454 27.834182 938.775273 938.775273 0 0 1 111.429819 101.794909c39.284364 42.635636 70.795636 86.388364 93.696 130.001455 26.391273 50.362182 41.704727 101.469091 45.521454 151.877818 4.002909 53.434182-4.840727 107.566545-26.344727 161.140364-53.061818 21.271273-106.682182 30.161455-159.650909 26.437818-50.036364-3.584-100.817455-18.478545-150.807273-44.311273-43.426909-22.434909-86.993455-53.434182-129.396364-92.16A930.443636 930.443636 0 0 1 372.363636 586.0072729999999a30.021818 30.021818 0 0 0-28.625454-11.031273c-75.729455 13.125818-142.801455-10.007273-199.400727-68.654545a343.04 343.04 0 0 1-42.216728-54.132364l162.722909 7.447273 1.396364 0.046545z m-112.407273-238.917819c36.165818 36.212364 100.957091 30.161455 144.616727-13.591272 43.752727-43.659636 49.803636-108.450909 13.591273-144.616728-36.212364-36.212364-260.514909-189.719273-304.221091-146.01309-43.752727 43.706182 109.800727 268.055273 146.013091 304.22109z m-22.667637-109.614545c-28.020364-39.237818-55.808-90.298182-83.223272-153.134545 78.056727 38.213818 131.863273 69.259636 161.512727 93.184 44.357818 35.84 110.312727 57.344 47.709091 123.531636-41.751273 44.125091-83.781818 22.946909-125.998546-63.581091z m517.864728 301.568a128.558545 128.558545 0 1 0 90.903272 37.701818c-24.017455-24.203636-56.785455-37.794909-90.903272-37.701818z m0 197.12a68.561455 68.561455 0 1 1 48.500363-117.015273 68.561455 68.561455 0 0 1-48.500363 117.015273z"  horiz-adv-x="1024" />

    
    <glyph glyph-name="security-un" unicode="&#59020;" d="M510.503385 896c12.642462 0 26.269538-3.859692 36.942769-10.633846 22.409846-14.572308 99.249231-87.158154 165.415384-102.636308 51.475692-12.563692 104.96-14.493538 133.19877-14.493538 16.541538 0 27.214769 0.984615 28.199384 0.984615h4.883693c16.462769 0 33.043692-5.828923 45.686153-17.447385 12.603077-11.618462 20.401231-29.026462 20.401231-46.473846V544.6892310000001c0-592.344615-405.504-668.750769-422.990769-671.665231-3.899077-0.984615-7.837538-0.984615-11.736615-0.984615-3.859692 0-7.758769 0-11.618462 0.984615C482.343385-124.10092299999997 78.769231-47.69476899999995 78.769231 544.649846V705.378462c0 17.408 7.758769 34.816 21.385846 46.434461 12.603077 11.618462 28.199385 17.447385 45.686154 17.447385h3.899077c0.984615 0 11.657846-0.984615 29.144615-0.984616 27.254154 0 82.668308 1.969231 134.222769 14.493539C390.892308 801.161846 470.646154 883.396923 473.560615 885.366154c11.657846 6.774154 24.300308 10.633846 36.94277 10.633846z m-0.827077-61.755077c-11.303385 0-22.567385-3.387077-33.004308-9.373538-2.56-1.693538-73.767385-73.964308-143.241846-90.19077-42.732308-10.24-88.457846-12.445538-114.215385-12.681846l-5.592615-0.039384c-15.635692 0-25.206154 0.866462-26.072616 0.866461h-3.465846c-15.635692 0-29.538462-5.12-40.802461-15.36-12.130462-10.200615-19.101538-25.481846-19.101539-40.802461v-141.154462c0-520.585846 360.369231-587.736615 375.099077-590.296615 3.465846-0.866462 6.971077-0.866462 10.397539-0.866462 3.465846 0 7.010462 0 10.476307 0.866462 15.596308 2.56 377.698462 69.710769 377.698462 590.296615V666.6633850000001a56.32 56.32 0 0 1-18.235077 40.841846 60.849231 60.849231 0 0 1-40.802462 15.320615h-4.332307c-0.787692 0-8.192-0.669538-19.928616-0.827077l-5.277538-0.039384c-25.206154 0-72.940308 1.693538-118.941539 12.760615-59.076923 13.587692-127.684923 77.390769-147.692307 90.190769a64.236308 64.236308 0 0 1-32.964923 9.334154z m0.787692-248.241231a199.483077 199.483077 0 0 0 200.546462-200.861538v-200.861539H309.878154v200.861539c0 111.891692 88.812308 200.861538 200.546461 200.861538z m0.551385-62.070154c-76.603077 0-139.264-62.818462-139.264-139.618461v-139.657846h278.528v139.657846c0 76.8-62.660923 139.618462-139.264 139.618461z m14.178461-62.345846l-19.298461-64.551384h76.051692l-90.348308-106.732308 25.088 78.178462H443.588923l81.604923 93.10523z"  horiz-adv-x="1024" />

    
    <glyph glyph-name="video-un" unicode="&#59021;" d="M512 896c248.832 0 450.56-204.96384 450.56-457.80992 0-185.30304-108.38016-344.8832-264.192-416.93184a634.4704 634.4704 0 0 0 208.73216-111.2064H116.89984a632.34048 632.34048 0 0 0 208.73216 111.2064C169.82016 93.34784000000002 61.44 252.928 61.44 438.19008 61.44 691.03616 263.168 896 512 896z m0-40.96C285.77792 855.04 102.4 670.84288 102.4 443.5968a411.648 411.648 0 0 1 240.18944-374.66112c92.24192-44.11392 254.7712-44.11392 338.82112 0A411.648 411.648 0 0 1 921.6 443.5968C921.6 670.84288 738.22208 855.04 512 855.04z m0-170.3936c133.9392 0 242.56512-110.3872 242.56512-246.45632 0-136.11008-108.62592-246.49728-242.56512-246.49728-133.9392 0-242.56512 110.3872-242.56512 246.49728C269.43488 574.2592 378.0608 684.6464 512 684.6464z m0-70.4512a170.3936 170.3936 0 0 1-122.4704-51.6096 175.9232 175.9232 0 0 1-50.7904-124.39552c0-46.98112 18.0224-91.21792 50.7904-124.47744a170.3936 170.3936 0 0 1 122.4704-51.6096 170.3936 170.3936 0 0 1 122.4704 51.6096 175.9232 175.9232 0 0 1 50.7904 124.47744 175.9232 175.9232 0 0 1-50.7904 124.43648A170.3936 170.3936 0 0 1 512 614.1952z m0-70.41024c57.38496 0 103.95648-47.3088 103.95648-105.59488 0-58.32704-46.57152-105.6768-103.95648-105.6768-57.38496 0-103.95648 47.34976-103.95648 105.6768C408.04352 496.47616 454.656 543.744 512 543.744z"  horiz-adv-x="1024" />

    
    <glyph glyph-name="ibds" unicode="&#59124;" d="M210.519431 662.752063c0-38.543507-31.264566-69.791083-69.791083-69.791083-38.50253 0-69.767097 31.247576-69.767097 69.791083 0 38.52052 31.264566 69.768096 69.767097 69.768096 38.526517 0 69.791083-31.22259 69.791083-69.768096z m778.565858-485.741142c0-38.550504-31.25857-69.77909-69.803076-69.77909-38.495534 0-69.755103 31.228586-69.755103 69.77909 0 38.527516 31.259569 69.780089 69.755103 69.780089 38.544507 0 69.803077-31.252573 69.803076-69.780089zM355.893368 806.932665a46.51906 46.51906 0 1 0-93.03912 0c0 25.691674 20.828386 46.52006 46.519061 46.52006 25.692673 0 46.52006-20.828386 46.520059-46.52006z m505.718003-797.555269a46.51906 46.51906 0 1 0-93.03912 0c0 25.691674 20.828386 46.52006 46.519061 46.52006 25.692673 0 46.52006-20.828386 46.520059-46.52006zM279.118179 835.356816c77.180963 41.081092 163.905603 61.74557 251.666667 59.966561 134.568962-3.032309 259.903074-56.845302 352.973176-151.521509 93.048115-94.697195 142.600484-218.842969 139.538191-349.610051-1.814988-77.309891-22.439487-152.567926-61.35079-223.658284-4.606431-11.547561-16.540777-19.417173-30.584945-19.417173-19.195296 0.401776-33.761174 15.381423-33.376389 33.416366 0.090949 2.47462 0.612658 4.436526 1.021431 5.885718l0.044974 2.808434 1.634089 3.054297c34.011035 59.052072 52.093952 125.082252 53.750028 196.283549C957.067143 505.317851 914.320979 612.344171 834.091717 693.911688 753.772504 775.547167 645.454904 821.936299 529.082795 824.566832c-74.079692 1.558131-147.339841-15.483366-212.845314-49.510392l-37.119302 60.300376zM145.861486 625.36691A436.307707 436.307707 0 0 1 72.190566 392.730632C69.472082 274.17474000000004 113.617465 161.711452 196.474263 75.95727c82.950745-85.777169 194.815368-134.534981 314.975364-137.276452 95.368821-2.483615 187.410497 26.031484 268.134484 81.442586 5.552904 6.021642 13.75433 9.301813 23.292012 9.301813 19.822946-0.421765 34.866558-16.165986 34.46778-35.120416a33.081553 33.081553 0 0 0-9.653617-22.868249c-91.315081-65.416523-196.595375-99.436552-305.602591-99.436552-4.05374 0-8.107479 0.045974-12.184205 0.139922C222.320851-121.22877600000004-6.377623 115.06246399999998 0.136744 398.893195 2.362503 495.705211 32.355778 586.121793 82.383882 662.83002l63.477604-37.46411z m572.034024-468.880544v-38.021799c0-10.863942-9.052952-19.916894-19.916894-19.916894h-57.937693c-10.863942 0-19.916894 9.052952-19.916894 19.916894v38.021799H428.202048v-38.021799c0-10.863942-9.052952-19.916894-19.916894-19.916894h-57.937693c-10.863942 0-19.916894 9.052952-19.916894 19.916894v38.021799c-21.727884 0-38.022798 18.105904-38.022798 38.022797V600.0780110000001c0 21.727884 36.211808 38.022798 57.938692 38.022798 0 0 77.855586 38.021798 173.816077 38.021798 97.770481 0 193.731972-38.021798 193.731972-38.021798 21.726885 0 38.021798-18.105904 38.021799-38.022798v-405.568848c0-19.916894-18.105904-38.022798-38.021799-38.022797z m-338.578203 57.938692c27.157856 0 48.88574 21.727884 48.88574 48.88574 0 27.158856-21.727884 48.88574-48.88574 48.885741-27.158856 0-48.88574-21.727884-48.885741-48.885741 0-27.158856 21.726885-48.88574 48.885741-48.88574z m222.700818 425.485742H448.118942c-10.863942 0-19.915895-9.052952-19.915895-19.915895 0-10.863942 9.051952-19.916894 19.915895-19.916894h153.899183c10.863942 0 19.915895 9.052952 19.915894 19.916894-1.809991 10.863942-9.052952 19.915895-19.915894 19.915895z m115.877385-115.876386c0 10.863942-9.052952 19.915895-19.916894 19.915895H350.347461c-10.863942 0-19.915895-9.052952-19.915895-19.915895v-115.877384c0-10.863942 9.052952-19.915895 19.915895-19.915895h347.631155c10.863942 0 19.916894 9.051952 19.916894 19.915895V524.034414zM669.009769 312.19553900000005c-27.158856 0-48.88574-21.727884-48.88574-48.88574 0-27.158856 21.726885-48.88574 48.88574-48.885741 27.158856 0 48.88574 21.727884 48.885741 48.885741 0 27.158856-21.727884 48.88574-48.885741 48.88574z"  horiz-adv-x="1024" />

    
    <glyph glyph-name="app-un" unicode="&#59125;" d="M858-108.75699999999995c0-10.553-8.686-19.243-19.234-19.243H185.234C174.686-128 166-119.30999999999995 166-108.75699999999995V876.757C166 887.31 174.686 896 185.234 896h653.325c10.548 0 19.234-8.69 19.234-19.243v-985.514H858z m-89.563 163.805h-0.15v715.59c0 7.663-6.309 13.973-13.97 13.973H279.803c-7.66 0-13.97-6.31-13.97-13.972v-715.591c0-7.662 6.31-13.972 13.97-13.972h474.665c7.66 0 13.97 6.31 13.97 13.972z m-251.302-135.55c21.33 0 38.905 17.428 38.755 38.762 0 21.334-17.425 38.762-38.755 38.762-21.33 0-38.754-17.428-38.754-38.762s17.424-38.762 38.754-38.762z m90.878 898.46c8.261 0 15.02 6.76 15.02 15.023s-6.759 15.024-15.02 15.024H426.258c-8.261 0-15.02-6.76-15.02-15.024 0-8.263 6.759-15.024 15.02-15.024h181.755zM365.14 549.832c5.036 6.166 10.072 11.912 15.108 17.238a161.989 161.989 0 0 0 12.38 13.454c4.337 4.205 7.624 7.288 9.863 9.25a68.035 68.035 0 0 0 9.862 6.727c3.497 1.962 8.183 2.944 14.059 2.944H607.71c3.637 0 7.833-0.771 12.59-2.313 4.756-1.542 9.372-4.695 13.849-9.46 2.238-2.803 5.176-6.307 8.813-10.511 3.637-4.205 7.134-8.269 10.492-12.193a355.986 355.986 0 0 0 11.75-15.136H365.141z m340.771-125.714c0-8.97-2.938-16.538-8.813-22.704-5.875-6.167-14.269-9.25-25.18-9.25H361.784c-10.632 0-19.095 3.083-25.39 9.25-6.295 6.166-9.443 13.734-9.443 22.704v60.124c0 8.97 2.798 16.678 8.394 23.124 5.595 6.447 14.688 9.67 27.278 9.67H671.5c12.87 0 21.823-3.223 26.86-9.67 5.035-6.446 7.553-14.155 7.553-23.124v-60.124zM547.697 454.39c0 3.644-0.91 6.237-2.728 7.778-1.818 1.542-4.266 2.313-7.344 2.313h-42.387c-3.077 0-5.595-0.981-7.554-2.943-1.958-1.962-2.937-4.345-2.937-7.148 0.28-3.644 1.329-6.307 3.147-7.988 1.819-1.682 4.267-2.523 7.344-2.523h42.387c6.435 0 9.792 3.504 10.072 10.511z m156.956-182.474c0-8.97-3.427-16.678-10.282-23.125-6.854-6.447-15.597-9.53-26.23-9.25H360.526c-8.953 0-16.997 3.154-24.131 9.46-7.135 6.307-10.702 15.066-10.702 26.278v56.34c0 9.25 2.868 17.028 8.604 23.335 5.735 6.307 14.898 9.46 27.488 9.46H669.82c11.75 0 20.493-3.153 26.229-9.46 5.735-6.307 8.603-13.945 8.603-22.914v-60.124z m-158.215 29.852c0 2.803-0.91 5.185-2.728 7.147-1.818 1.962-4.266 2.943-7.344 2.943h-42.387c-3.077 0-5.595-0.98-7.554-2.943-1.958-1.962-2.937-4.344-2.937-7.147s0.979-5.186 2.937-7.148c1.959-1.962 4.477-2.943 7.554-2.943h42.387c3.078 0 5.526 0.98 7.344 2.943 1.819 1.962 2.728 4.345 2.728 7.148z"  horiz-adv-x="1024" />

    
    <glyph glyph-name="report" unicode="&#59022;" d="M1018.135273-49.33818199999996v-72.750545H0v72.704h1018.135273zM290.909091 605.090909v-581.771636H0v581.818182h290.909091zM654.522182 896v-872.680727h-290.909091V896h290.909091z m363.613091-145.454545v-727.226182h-290.909091V750.545455h290.909091z"  horiz-adv-x="1024" />

    
    <glyph glyph-name="report-un" unicode="&#59023;" d="M1018.135273-49.33818199999996v-72.750545H0v72.704h1018.135273zM290.909091 605.090909v-581.771636H0v581.818182h290.909091zM654.522182 896v-872.680727h-290.909091V896h290.909091z m363.613091-145.454545v-727.226182h-290.909091V750.545455h290.909091zM218.158545 532.3869090000001H72.704v-436.317091h145.454545V532.3869090000001z m363.613091 290.909091H436.317091v-727.226182H581.818182V823.296z m363.613091-145.454545h-145.408v-581.818182h145.408v581.818182z"  horiz-adv-x="1024" />

    
    <glyph glyph-name="oneview" unicode="&#59034;" d="M797.32736-28.05759999999998a31.70304 31.70304 0 1 0 0-63.40608H226.67264a31.70304 31.70304 0 1 0 0 63.40608h570.65472zM892.43648 859.46368a126.81216 126.81216 0 0 0 126.7712-126.81216v-507.12576a126.81216 126.81216 0 0 0-126.7712-126.81216H131.56352a126.81216 126.81216 0 0 0-126.7712 126.81216V732.65152A126.81216 126.81216 0 0 0 131.56352 859.46368h760.87296zM512 669.2864c-103.2192 0-197.75488-49.5616-283.68896-148.6848a63.40608 63.40608 0 0 1 0-83.02592c85.93408-99.1232 180.51072-148.6848 283.68896-148.6848 103.2192 0 197.75488 49.5616 283.68896 148.6848a63.40608 63.40608 0 0 1 0 83.02592c-85.93408 99.1232-180.51072 148.6848-283.68896 148.6848z m0-63.40608c83.39456 0 161.1776-40.7552 235.76576-126.7712-74.58816-86.05696-152.3712-126.81216-235.76576-126.81216s-161.1776 40.7552-235.76576 126.7712c74.58816 86.05696 152.3712 126.81216 235.76576 126.81216z m0-31.70304a95.10912 95.10912 0 1 1 0-190.17728 95.10912 95.10912 0 0 1 0 190.17728z m0-63.40608a31.70304 31.70304 0 1 0 0-63.40608 31.70304 31.70304 0 0 0 0 63.40608z"  horiz-adv-x="1024" />

    
    <glyph glyph-name="oneview-un" unicode="&#59035;" d="M797.32736-28.05759999999998a31.70304 31.70304 0 1 0 0-63.40608H226.67264a31.70304 31.70304 0 1 0 0 63.40608h570.65472zM892.43648 859.46368a126.81216 126.81216 0 0 0 126.7712-126.81216v-507.12576a126.81216 126.81216 0 0 0-126.7712-126.81216H131.56352a126.81216 126.81216 0 0 0-126.7712 126.81216V732.65152A126.81216 126.81216 0 0 0 131.56352 859.46368h760.87296z m0-63.40608H131.56352c-34.97984 0-63.36512-28.38528-63.36512-63.40608v-507.12576c0-35.0208 28.38528-63.40608 63.36512-63.40608h760.87296c34.97984 0 63.36512 28.38528 63.36512 63.40608V732.65152c0 35.0208-28.38528 63.40608-63.36512 63.40608zM512 669.2864c103.2192 0 197.75488-49.5616 283.68896-148.6848a63.40608 63.40608 0 0 0 0-83.02592c-85.93408-99.1232-180.51072-148.6848-283.68896-148.6848-103.2192 0-197.75488 49.5616-283.68896 148.6848a63.40608 63.40608 0 0 0 0 83.02592c85.93408 99.1232 180.51072 148.6848 283.68896 148.6848z m0-63.40608c-83.39456 0-161.1776-40.7552-235.76576-126.81216 74.58816-86.016 152.3712-126.7712 235.76576-126.7712s161.1776 40.7552 235.76576 126.81216c-74.58816 86.016-152.3712 126.7712-235.76576 126.7712z m0-31.70304a95.10912 95.10912 0 1 0 0-190.17728 95.10912 95.10912 0 0 0 0 190.17728z m0-63.40608a31.70304 31.70304 0 1 1 0-63.40608 31.70304 31.70304 0 0 1 0 63.40608z"  horiz-adv-x="1024" />

    


  </font>
</defs>
</svg>
