<?xml version="1.0" encoding="UTF-8"?>
<svg width="50px" height="52px" viewBox="0 0 50 52" version="1.1" xmlns="http://www.w3.org/2000/svg" xmlns:xlink="http://www.w3.org/1999/xlink">
    <!-- Generator: Sketch 52.6 (67491) - http://www.bohemiancoding.com/sketch -->
    <title>logo</title>
    <desc>Created with Sketch.</desc>
    <g id="移动APP管理平台" stroke="none" stroke-width="1" fill="none" fill-rule="evenodd">
        <g id="移动APP管理平台-内容管理-banner管理" transform="translate(-13.000000, -11.000000)" fill="#FFFFFF">
            <g id="body_bg">
                <g id="logo" transform="translate(38.000000, 37.000000) scale(-1, 1) translate(-38.000000, -37.000000) translate(13.000000, 11.000000)">
                    <g id="logo2" transform="translate(25.000000, 19.500000) scale(-1, 1) translate(-25.000000, -19.500000) " fill-rule="nonzero">
                        <path d="M14.8715823,10.733945 L36.9642857,10.733945 C38.0491308,10.733945 38.9285714,11.6133856 38.9285714,12.6982307 L38.9285714,13.0632372 C38.9285714,14.1480823 38.0491308,15.0275229 36.9642857,15.0275229 L13.75,15.0275229 C13.61916,15.0275229 13.4913078,15.0147305 13.3676259,14.9903282 C13.272736,15.3135163 13.1899267,15.6026441 13.1180124,15.8479634 C12.358393,18.4392316 10.7376276,21.5998145 8.2336895,22.9578506 C5.72975137,24.3158867 4.14972904,26.4088646 4.14972904,29.3297748 C4.14972904,34.5853973 10.0636321,34.7838027 10.7376276,34.7891077 L23.537229,34.7891077 C24.0902105,34.7700098 29.4195632,34.4623222 29.4195632,29.6082851 C29.4163748,26.8080999 27.1657716,24.5388995 24.3885364,24.5356837 C20.8964924,24.5356837 19.8021046,27.7388177 19.7915817,27.7717084 C19.4221784,28.8387637 18.2790904,29.4171713 17.2097999,29.0780969 C16.1165355,28.7314179 15.5090014,27.5567887 15.8528381,26.454487 C15.9349172,26.2051539 17.9332271,20.3537846 24.3885365,20.3537846 C26.7347764,20.3537846 33.5714286,21.5178844 33.5714286,29.6082851 C33.5714286,36.7607997 28.1553895,38.973659 22.8671716,38.973659 L10.7276307,38.973659 C10.4577168,38.973659 8.06058673,38.9423598 5.57716837,37.8596177 C1.98147321,36.2909415 0,33.2618101 0,29.3313663 C0,24.5139334 1.78703367,22.5633134 7.02434399,18.4392316 C9.16964069,16.0127412 9.27113709,14.6498668 9.72077103,13.4717111 C11.058862,9.96557139 13.0084467,1.45954342 20.4410714,0.71559633 L40.2940833,0.71559633 C41.4398547,0.71559633 42.1428572,1.73996147 42.1428571,2.89520109 C42.1428571,4.0504407 41.4398547,4.89908673 40.2940834,4.89908668 L20.4410715,4.89908668 C17.8170685,5.40148303 16.0477023,8.06274386 14.8715823,10.7339449 Z M33.1275256,36.9328894 L37.1948063,23.5350005 C37.5675163,22.3072693 38.699537,21.4678899 39.9825945,21.4678899 C40.8672487,21.4678899 41.5844026,22.1850438 41.5844026,23.069698 C41.5844026,23.2273528 41.561128,23.3841439 41.5153315,23.5350005 L37.4480509,36.9328894 C37.0753409,38.1606206 35.9433201,39 34.6602626,39 C33.7756084,39 33.0584546,38.2828461 33.0584546,37.3981919 C33.0584546,37.2405372 33.0817292,37.083746 33.1275256,36.9328894 Z M38.8239092,36.9470852 L41.5359116,27.8143827 C41.8975353,26.5966101 43.0167218,25.7614679 44.2870532,25.7614679 C45.1696103,25.7614679 45.8850642,26.4769218 45.8850642,27.3594788 C45.8850642,27.5135074 45.8627951,27.6667269 45.8189479,27.8143827 L43.1069456,36.9470852 C42.7453218,38.1648578 41.6261353,39 40.3558039,39 C39.4732468,39 38.757793,38.2845461 38.757793,37.4019891 C38.757793,37.2479605 38.7800621,37.094741 38.8239092,36.9470852 Z M44.1746783,36.9724026 L45.5230249,32.4404414 C45.8809063,31.2375578 46.9867155,30.412844 48.2417088,30.412844 C49.1130446,30.412844 49.8194019,31.1192013 49.8194019,31.9905371 C49.8194019,32.1428815 49.7973366,32.2944227 49.7538932,32.4404414 L48.4055465,36.9724026 C48.0476652,38.1752863 46.941856,39 45.6868627,39 C44.8155268,39 44.1091696,38.2936427 44.1091696,37.4223069 C44.1091696,37.2699625 44.1312349,37.1184213 44.1746783,36.9724026 Z" id="合并形状"></path>
                        <ellipse id="椭圆形" cx="46.9835474" cy="2.70707733" rx="2.69783307" ry="2.70707733"></ellipse>
                    </g>
                    <path d="M4.77869335,43.7849285 L4.77869335,43.4345106 C4.77869335,43.250784 4.92763311,43.1018443 5.11135962,43.1018443 C5.29508613,43.1018443 5.4440259,43.250784 5.4440259,43.4345106 L5.4440259,43.7849285 L8.17104179,43.7849285 C8.17317405,43.7849285 8.17528824,43.7849843 8.17738434,43.7850949 C8.48858919,43.7892081 8.71273346,43.8695361 8.8498236,44.0260812 C8.990613,44.1868505 9.06100665,44.4280008 9.06100665,44.7495393 L9.06100665,45.5817526 C9.06100665,45.7078462 9.03040072,45.7976865 8.96918793,45.8512762 C8.90797515,45.904866 8.81921794,45.9316605 8.70291365,45.9316605 C8.6049732,45.9316605 8.52539777,45.9017137 8.46418499,45.8418193 C8.4029722,45.7819248 8.37236627,45.6889322 8.37236627,45.5628387 L8.37236627,44.7400824 C8.37236627,44.5698561 8.30503322,44.4847442 8.17036509,44.4847442 L1.89064155,44.4847442 C1.75597343,44.4847442 1.68864038,44.5698561 1.68864038,44.7400824 L1.68864038,45.5628387 C1.68864038,45.6889322 1.65803444,45.7819248 1.59682166,45.8418193 C1.53560888,45.9017137 1.45603345,45.9316605 1.358093,45.9316605 C1.24178871,45.9316605 1.1530315,45.904866 1.09181872,45.8512762 C1.03060593,45.7976865 1,45.7078462 1,45.5817526 L1,44.7495393 C1,44.4280008 1.07039365,44.1868505 1.21118305,44.0260812 C1.34827319,43.8695361 1.57241746,43.7892081 1.88362231,43.7850949 C1.8857184,43.7849843 1.8878326,43.7849285 1.88996486,43.7849285 L1.9090053,43.7849285 L4.77869335,43.7849285 Z M16.0795965,43.8700412 C16.0795047,43.8668276 16.0794585,43.8636026 16.0794585,43.8603668 L16.0794585,43.4345106 C16.0794585,43.250784 16.2283983,43.1018443 16.4121248,43.1018443 C16.5958513,43.1018443 16.7447911,43.250784 16.7447911,43.4345106 L16.7447911,43.8603668 C16.7447911,43.8636026 16.7447449,43.8668276 16.7446531,43.8700412 L18.0592113,43.8700412 C18.3530327,43.8700412 18.5535015,43.9315109 18.6606239,44.0544521 C18.7677463,44.1773933 18.8213067,44.3838684 18.8213067,44.6738836 L18.8213067,46.688218 C18.8213067,46.9782332 18.7677463,47.1862845 18.6606239,47.312378 C18.5535015,47.4384716 18.3530327,47.5015174 18.0592113,47.5015174 L14.7812831,47.5015174 C14.493583,47.5015174 14.2977051,47.4416239 14.1936433,47.321835 C14.0895816,47.2020461 14.0375515,46.9971471 14.0375515,46.707132 L14.0375515,44.6738836 C14.0375515,44.3838684 14.0895816,44.1773933 14.1936433,44.0544521 C14.2977051,43.9315109 14.493583,43.8700412 14.7812831,43.8700412 L16.0795965,43.8700412 Z M21.881398,43.8293035 L24.9376109,43.8293035 C25.1163961,43.8293035 25.2613302,43.9742375 25.2613302,44.1530228 C25.2613302,44.331808 25.1163961,44.4767421 24.9376109,44.4767421 L23.5238376,44.4767421 L23.5238376,45.2318046 C23.5238376,45.4053891 23.3831195,45.5461071 23.209535,45.5461071 C23.0359505,45.5461071 22.8952325,45.4053891 22.8952325,45.2318046 L22.8952325,44.4767421 L21.7004115,44.4767421 C21.6722361,44.4767421 21.6449014,44.4731426 21.6188422,44.4663783 L21.3693437,45.0717703 C21.3042917,45.2296149 21.1235982,45.3048382 20.9657535,45.2397861 C20.9637304,45.2389524 20.9617163,45.2380971 20.9597114,45.2372206 C20.7989418,45.1669334 20.7238521,44.9810216 20.7907097,44.8187958 L21.3779966,43.3937819 C21.4430487,43.2359372 21.6237422,43.1607139 21.7815868,43.225766 C21.7836099,43.2265998 21.7856241,43.227455 21.787629,43.2283315 C21.9483986,43.2986188 22.0234883,43.4845305 21.9566306,43.6467563 L21.881398,43.8293035 Z M8.6209535,51.000596 C8.6209535,51.2906112 8.56892342,51.4986625 8.46486168,51.624756 C8.36079995,51.7508496 8.16492198,51.8138954 7.8772219,51.8138954 L2.33137139,51.8138954 C2.04367131,51.8138954 1.84779334,51.7508496 1.74373161,51.624756 C1.63966987,51.4986625 1.58763979,51.2906112 1.58763979,51.000596 L1.58763979,49.2132288 C1.58763979,48.9232137 1.63966987,48.7151624 1.74373161,48.5890689 C1.84779334,48.4629753 2.04367131,48.3999295 2.33137139,48.3999295 L7.8772219,48.3999295 C8.16492198,48.3999295 8.36079995,48.4629753 8.46486168,48.5890689 C8.56892342,48.7151624 8.6209535,48.9232137 8.6209535,49.2132288 L8.6209535,51.000596 Z M8.07922307,47.2272653 C8.07922307,47.5235851 8.01648091,47.7237557 7.8909947,47.8277828 C7.7655085,47.93181 7.56197904,47.9838228 7.28040024,47.9838228 L2.81801059,47.9838228 C2.53643179,47.9838228 2.33596293,47.93181 2.216598,47.8277828 C2.09723307,47.7237557 2.0375515,47.5235851 2.0375515,47.2272653 L2.0375515,46.7449598 C2.0375515,46.44864 2.09723307,46.2468933 2.216598,46.1397138 C2.33596293,46.0325343 2.53643179,45.9789453 2.81801059,45.9789453 L7.28040024,45.9789453 C7.56197904,45.9789453 7.7655085,46.0325343 7.8909947,46.1397138 C8.01648091,46.2468933 8.07922307,46.44864 8.07922307,46.7449598 L8.07922307,47.2272653 Z M8.00082401,45.2129308 C8.00082401,45.3138057 7.98030841,45.3973414 7.9392766,45.4635405 C7.89824478,45.5297396 7.81755009,45.5628387 7.69719009,45.5628387 L2.36308066,45.5628387 C2.24272066,45.5628387 2.16202597,45.5297396 2.12099415,45.4635405 C2.07996233,45.3973414 2.05944673,45.3138057 2.05944673,45.2129308 C2.05944673,45.1057513 2.07996233,45.0206394 2.12099415,44.9575926 C2.16202597,44.8945459 2.24272066,44.863023 2.36308066,44.863023 L7.69719009,44.863023 C7.81755009,44.863023 7.89824478,44.8945459 7.9392766,44.9575926 C7.98030841,45.0206394 8.00082401,45.1057513 8.00082401,45.2129308 Z M7.3905827,46.7827877 C7.3905827,46.7008269 7.33549202,46.6598471 7.22530901,46.6598471 L2.8822837,46.6598471 C2.77822196,46.6598471 2.72619188,46.7008269 2.72619188,46.7827877 L2.72619188,47.1799804 C2.72619188,47.2619412 2.77822196,47.302921 2.8822837,47.302921 L7.22530901,47.302921 C7.27427923,47.302921 7.31406695,47.2903119 7.34467334,47.2650932 C7.37527973,47.2398744 7.3905827,47.2115038 7.3905827,47.1799804 L7.3905827,46.7827877 Z M7.93231313,50.4426348 L5.4440259,50.4426348 L5.4440259,51.1235366 L7.81294879,51.1235366 C7.89252541,51.1235366 7.93231313,51.0667954 7.93231313,50.9533112 L7.93231313,50.4426348 Z M4.76456739,50.4426348 L2.27628016,50.4426348 L2.27628016,50.9533112 C2.27628016,51.0667954 2.31606788,51.1235366 2.3956445,51.1235366 L4.76456739,51.1235366 L4.76456739,50.4426348 Z M4.76456739,49.0902882 L2.3956445,49.0902882 C2.31606788,49.0902882 2.27628016,49.1470295 2.27628016,49.2605137 L2.27628016,49.77119 L4.76456739,49.77119 L4.76456739,49.0902882 Z M7.93231313,49.2605137 C7.93231313,49.1470295 7.89252541,49.0902882 7.81294879,49.0902882 L5.4440259,49.0902882 L5.4440259,49.77119 L7.93231313,49.77119 L7.93231313,49.2605137 Z M16.075927,51.1235366 L16.075927,50.1778397 L14.3497351,50.1778397 C14.0620351,50.1778397 13.9181872,50.0580526 13.9181872,49.8184749 C13.9181872,49.5788971 14.0620351,49.45911 14.3497351,49.45911 L16.075927,49.45911 L16.075927,48.6458107 L14.1660977,48.6458107 C13.8783976,48.6458107 13.7345497,48.5260236 13.7345497,48.2864458 C13.7345497,48.0531728 13.8783976,47.936538 14.1660977,47.936538 L18.6743967,47.936538 C18.9376117,47.936538 19.0692172,48.0531728 19.0692172,48.2864458 C19.0692172,48.5260236 18.9376117,48.6458107 18.6743967,48.6458107 L16.7645674,48.6458107 L16.7645674,49.45911 L18.4907593,49.45911 C18.7600955,49.45911 18.8947616,49.5788971 18.8947616,49.8184749 C18.8947616,50.0580526 18.7600955,50.1778397 18.4907593,50.1778397 L16.7645674,50.1778397 L16.7645674,51.1235366 L18.9773985,51.1235366 C19.2467347,51.1235366 19.3814008,51.2433237 19.3814008,51.4829015 C19.3814008,51.7161746 19.2467347,51.8328093 18.9773985,51.8328093 L13.8539141,51.8328093 C13.5723353,51.8328093 13.431548,51.7161746 13.431548,51.4829015 C13.431548,51.2433237 13.5723353,51.1235366 13.8539141,51.1235366 L16.075927,51.1235366 Z M12.6602707,43.3782788 C12.6602707,43.7502548 12.6587405,44.1332582 12.6556798,44.5273005 C12.6526192,44.9213429 12.6480283,45.3169555 12.641907,45.7141502 C12.7398475,45.5124005 12.830135,45.2996208 12.9127722,45.0758048 C12.9954095,44.8519887 13.0795758,44.5982292 13.1652737,44.3145187 C13.2203652,44.1316831 13.2831074,44.0087437 13.3535021,43.9456969 C13.4238968,43.8826502 13.5172449,43.8668887 13.6335491,43.8984121 C13.7314896,43.9299355 13.7988227,43.9945575 13.8355503,44.09228 C13.872278,44.1900025 13.856975,44.3397363 13.789641,44.541486 C13.7100643,44.7873684 13.6304889,45.0143334 13.5509123,45.2223878 C13.4713357,45.4304422 13.3856391,45.6321888 13.2938199,45.8276338 C13.2020007,46.0230788 13.1010011,46.2137925 12.9908181,46.3997805 C12.8806351,46.5857685 12.7582114,46.7796344 12.6235433,46.9813841 C12.6235433,47.0318215 12.622013,47.0822582 12.6189523,47.1326956 C12.6158917,47.183133 12.6143614,47.2335697 12.6143614,47.2840071 C12.6021188,47.599241 12.5898765,47.8876757 12.5776339,48.1493198 C12.5653913,48.4109639 12.5439672,48.6584188 12.5133608,48.8916919 C12.7459694,49.2699725 12.9341959,49.5930824 13.0780459,49.8610312 C13.221896,50.12898 13.3397288,50.3669781 13.431548,50.5750324 C13.5050033,50.7452587 13.5371395,50.8792311 13.5279576,50.9769536 C13.5187757,51.0746761 13.4621547,51.1550596 13.358093,51.2181063 C13.2356674,51.2874578 13.1361981,51.2906101 13.0596822,51.2275633 C12.9831662,51.1645165 12.9112422,51.0541863 12.8439082,50.8965694 C12.7704528,50.7263431 12.693938,50.5545432 12.6143614,50.3811645 C12.5347848,50.2077859 12.4460276,50.0296814 12.3480871,49.8468458 C12.2501467,50.2377358 12.1292532,50.575031 11.9854032,50.8587415 C11.8415531,51.142452 11.6686296,51.4135491 11.4666274,51.6720409 C11.2095337,52.0061888 10.9861104,52.0849961 10.7963508,51.9084651 C10.7106529,51.8265043 10.6678046,51.7350878 10.6678046,51.634213 C10.6678046,51.5333381 10.7381982,51.4009419 10.8789876,51.2370203 C11.0442622,51.0415753 11.1896403,50.8287956 11.3151265,50.5986748 C11.4406128,50.3685541 11.5477335,50.1116423 11.6364921,49.8279318 C11.7252506,49.5442213 11.7971745,49.2305683 11.852266,48.8869634 C11.9073575,48.5433585 11.9471453,48.1572027 11.9716304,47.7284847 C11.9777516,47.5771724 11.9838728,47.3360221 11.9899941,47.0050265 C11.9961154,46.6740309 12.0007063,46.3020605 12.0037669,45.8891041 C12.0068276,45.4761477 12.0083579,45.0490122 12.0083579,44.6076848 L12.0083579,43.3877357 C12.0083579,43.2616422 12.0313123,43.1654973 12.0772219,43.0992982 C12.1231315,43.0330991 12.2072978,43 12.3297234,43 C12.4460277,43 12.530194,43.0252183 12.5822248,43.0756558 C12.6342557,43.1260932 12.6602707,43.2269665 12.6602707,43.3782788 Z M11.6961742,44.834652 C11.7329019,45.4462058 11.7390231,46.0372605 11.714538,46.6078338 C11.6900528,47.1784071 11.6349622,47.7379389 11.5492643,48.2864458 C11.5186579,48.4755862 11.4773399,48.6016778 11.425309,48.6647246 C11.3732781,48.7277714 11.27993,48.7498374 11.1452619,48.7309234 C11.0350789,48.718314 10.9585641,48.674182 10.9157151,48.5985258 C10.8728662,48.5228697 10.866745,48.3936257 10.8973514,48.2107901 C10.9646854,47.7379393 11.0167155,47.2130827 11.0534432,46.6362047 C11.0901709,46.0593267 11.0871103,45.468272 11.0442613,44.863023 C11.0320188,44.6991013 11.0519126,44.5824665 11.1039435,44.5131151 C11.1559744,44.4437636 11.2462619,44.4059361 11.3748087,44.3996315 C11.4849917,44.3933268 11.5630369,44.4232736 11.6089464,44.4894727 C11.654856,44.5556718 11.6839317,44.6707304 11.6961742,44.834652 Z M18.1326663,46.0073162 L18.1326663,44.7306254 C18.1326663,44.6675786 18.1234845,44.6265988 18.1051207,44.6076848 C18.0867568,44.5887708 18.0439085,44.5793139 17.9765745,44.5793139 L14.86392,44.5793139 C14.7782221,44.5793139 14.7353737,44.6297505 14.7353737,44.7306254 L14.7353737,46.0073162 L14.7353737,46.6409332 C14.7353737,46.70398 14.7445555,46.7449598 14.7629194,46.7638738 C14.7812832,46.7827878 14.8149497,46.7922447 14.86392,46.7922447 L17.9765745,46.7922447 C18.0439085,46.7922447 18.0867568,46.7796355 18.1051207,46.7544168 C18.1234845,46.7291981 18.1326663,46.6913706 18.1326663,46.6409332 L18.1326663,46.0073162 Z M28.3881107,50.9911391 C28.3881107,51.2811542 28.3360806,51.4907816 28.2320188,51.6200275 C28.1279571,51.7492734 27.9320791,51.8138954 27.644379,51.8138954 L22.3831666,51.8138954 C22.0954665,51.8138954 21.8995885,51.7492734 21.7955268,51.6200275 C21.691465,51.4907816 21.639435,51.2811542 21.639435,50.9911391 L21.639435,48.863321 C21.639435,48.5733058 21.691465,48.3652546 21.7955268,48.239161 C21.8995885,48.1130674 22.0954665,48.0500216 22.3831666,48.0500216 L27.644379,48.0500216 C27.9320791,48.0500216 28.1279571,48.1130674 28.2320188,48.239161 C28.3360806,48.3652546 28.3881107,48.5733058 28.3881107,48.863321 L28.3881107,50.9911391 Z M28.8747499,46.6787611 C28.8747499,46.855292 28.8640378,47.0018736 28.8426133,47.1185101 C28.8211888,47.2351467 28.7798708,47.3297154 28.718658,47.4022192 C28.6574453,47.474723 28.5717486,47.5251597 28.4615656,47.5535307 C28.3513826,47.5819018 28.2105953,47.5960871 28.0391995,47.5960871 L26.4231901,47.5960871 C26.2517943,47.5960871 26.1125373,47.5819018 26.0054149,47.5535307 C25.8982926,47.5251597 25.8141263,47.4762992 25.7529135,47.4069477 C25.6917007,47.3375962 25.6503827,47.2446036 25.6289582,47.1279671 C25.6075337,47.0113306 25.5968217,46.8615967 25.5968217,46.6787611 L25.5968217,44.4658302 C25.5968217,44.2892993 25.6075337,44.1427177 25.6289582,44.0260812 C25.6503827,43.9094446 25.6917007,43.816452 25.7529135,43.7471006 C25.8141263,43.6777491 25.8982926,43.6304647 26.0054149,43.605246 C26.1125373,43.5800273 26.2517943,43.5674182 26.4231901,43.5674182 L28.0391995,43.5674182 C28.2105953,43.5674182 28.3498523,43.5800273 28.4569747,43.605246 C28.5640971,43.6304647 28.6482634,43.6777491 28.7094762,43.7471006 C28.7706889,43.816452 28.8135373,43.9094446 28.8380224,44.0260812 C28.8625075,44.1427177 28.8747499,44.2892993 28.8747499,44.4658302 L28.8747499,46.6787611 Z M23.2598233,45.5461071 L24.7564684,45.5461071 C24.878894,45.5461071 24.9753027,45.5705657 25.0456974,45.6194835 C25.1160921,45.6684013 25.1512889,45.7504094 25.1512889,45.8655102 C25.1512889,46.0842017 25.0196834,46.1935458 24.7564684,46.1935458 L23.856645,46.1935458 L22.350818,46.1935458 L20.8174455,46.1935458 C20.566473,46.1935458 20.4409887,46.0870792 20.4409887,45.8741427 C20.4409887,45.6554512 20.566473,45.5461071 20.8174455,45.5461071 L22.5803648,45.5461071 L23.2598233,45.5461071 Z M28.1861095,44.4374593 C28.1861095,44.3302798 28.1463218,44.2766909 28.0667451,44.2766909 L26.3956445,44.2766909 C26.3160679,44.2766909 26.2762802,44.3302798 26.2762802,44.4374593 L26.2762802,46.707132 C26.2762802,46.8269208 26.3160679,46.8868144 26.3956445,46.8868144 L28.0667451,46.8868144 C28.1463218,46.8868144 28.1861095,46.8269208 28.1861095,46.707132 L28.1861095,44.4374593 Z M27.6902884,50.3189668 L27.6902884,48.9295198 C27.6902884,48.8223402 27.6505007,48.7687513 27.5709241,48.7687513 L22.4474397,48.7687513 C22.3739843,48.7687513 22.3372572,48.8223402 22.3372572,48.9295198 L22.3372572,50.3189668 L22.3372572,50.9154833 C22.3372572,51.0352722 22.3739843,51.0951657 22.4474397,51.0951657 L27.5709241,51.0951657 C27.6505007,51.0951657 27.6902884,51.0352722 27.6902884,50.9154833 L27.6902884,50.3189668 Z M36.6786345,44.7022545 L36.6786345,44.3618036 L35.494173,44.3618036 C35.2432006,44.3618036 35.1177163,44.2609303 35.1177163,44.0591806 C35.1177163,43.9456964 35.1498525,43.8668891 35.214126,43.8227563 C35.2783994,43.7786236 35.3717475,43.7565575 35.494173,43.7565575 L36.6786345,43.7565575 L36.6786345,43.4539345 C36.6786345,43.1891381 36.7888158,43.0567418 37.0091819,43.0567418 C37.1254862,43.0567418 37.2081222,43.091417 37.2570924,43.1607685 C37.3060626,43.2301199 37.3305474,43.327841 37.3305474,43.4539345 L37.3305474,43.7565575 L38.5241907,43.7565575 C38.6282524,43.7565575 38.7185399,43.7770474 38.7950559,43.8180278 C38.8715719,43.8590083 38.9098293,43.9393917 38.9098293,44.0591806 C38.9098293,44.2609303 38.7812844,44.3618036 38.5241907,44.3618036 L37.3305474,44.3618036 L37.3305474,44.7022545 L38.3497351,44.7022545 C38.478282,44.7022545 38.5731604,44.7180159 38.6343732,44.7495393 C38.6955859,44.7810627 38.7292525,44.8661746 38.7353737,45.0048775 C38.741495,45.112057 38.7093588,45.1829836 38.6389641,45.2176593 C38.5685694,45.252335 38.4721607,45.2696726 38.3497351,45.2696726 L37.3305474,45.2696726 L37.3305474,45.6290375 L38.7445556,45.6290375 C38.8547386,45.6290375 38.9465564,45.6511035 39.0200118,45.6952363 C39.0934671,45.739369 39.1301942,45.8181763 39.1301942,45.9316605 C39.1301942,46.1334102 39.0016493,46.2342835 38.7445556,46.2342835 L37.3305474,46.2342835 L37.3305474,46.404509 C37.3305474,46.5684306 37.2876991,46.6724562 37.2020012,46.7165889 C37.3611544,46.7165889 37.4958205,46.7307743 37.6060035,46.7591453 C37.7161865,46.7875164 37.8034135,46.8332246 37.8676869,46.8962714 C37.9319603,46.9593181 37.9778692,47.04443 38.0054149,47.1516095 C38.0329607,47.2587891 38.0467334,47.3943376 38.0467334,47.5582592 L38.0467334,48.863321 C38.0467334,49.0335473 38.0375516,49.1690958 38.0191878,49.2699707 C38.0008239,49.3708455 37.9640968,49.4480766 37.9090053,49.5016664 C37.8539138,49.5552562 37.7728081,49.5899314 37.6656857,49.6056931 C37.5585633,49.6214548 37.4162457,49.6293355 37.2387287,49.6293355 L35.0626251,49.6293355 C35.0748676,49.6419448 34.9310183,49.6419448 34.6310771,49.6293355 L31.4816951,49.6293355 C31.347027,49.6293355 31.2506183,49.602541 31.1924662,49.5489512 C31.134314,49.4953615 31.1052384,49.4055212 31.1052384,49.2794276 C31.1052384,49.1911621 31.1312534,49.1186594 31.1832843,49.0619173 C31.2353152,49.0051752 31.3347844,48.9768046 31.4816951,48.9768046 L37.2020012,48.9768046 C37.3183055,48.9768046 37.3764567,48.9358248 37.3764567,48.853864 L37.3764567,48.4944992 L37.3764567,47.8419683 L37.3764567,47.5015174 C37.3764567,47.4132519 37.3183055,47.3691198 37.2020012,47.3691198 L31.5000589,47.3691198 C31.3776333,47.3691198 31.2842852,47.3391731 31.2200118,47.2792786 C31.1557383,47.2193842 31.1236021,47.1390007 31.1236021,47.0381259 C31.1236021,46.8237669 31.2490864,46.7165889 31.5000589,46.7165889 L32.4733373,46.7165889 C32.4121245,46.6976749 32.3677459,46.6645758 32.3402001,46.6172908 C32.3126544,46.5700057 32.2988817,46.4959268 32.2988817,46.395052 L32.2988817,46.2342835 L30.8573278,46.2342835 C30.6063554,46.2342835 30.4808711,46.1334102 30.4808711,45.9316605 C30.4808711,45.8055669 30.5130073,45.7236074 30.5772808,45.6857793 C30.6415542,45.6479512 30.7349023,45.6290375 30.8573278,45.6290375 L32.2988817,45.6290375 L32.2988817,45.2696726 L32.2988817,44.7022545 L32.2988817,44.3618036 L31.0685109,44.3618036 C30.8236598,44.3618036 30.701236,44.2609303 30.701236,44.0591806 C30.701236,43.9456964 30.731842,43.8668891 30.7930547,43.8227563 C30.8542675,43.7786236 30.9460853,43.7565575 31.0685109,43.7565575 L32.2988817,43.7565575 L32.2988817,43.4350206 C32.2988817,43.1828335 32.4090631,43.0567418 32.6294291,43.0567418 C32.7334908,43.0567418 32.8145965,43.0882647 32.8727487,43.1513115 C32.9309008,43.2143583 32.9599765,43.308927 32.9599765,43.4350206 L32.9599765,43.7565575 L34.0893467,43.7565575 C34.205651,43.7565575 34.2974688,43.7754713 34.3648028,43.8132994 C34.4321369,43.8511274 34.4658034,43.933087 34.4658034,44.0591806 C34.4658034,44.2609303 34.3403191,44.3618036 34.0893467,44.3618036 L32.9599765,44.3618036 L32.9599765,44.7022545 L33.9057092,44.7022545 C34.0281348,44.7022545 34.1214829,44.7227444 34.1857563,44.7637248 C34.2500298,44.8047052 34.282166,44.878784 34.282166,44.9859636 C34.282166,45.0931431 34.2500298,45.1672219 34.1857563,45.2082023 C34.1214829,45.2491827 34.0281348,45.2696726 33.9057092,45.2696726 L32.9599765,45.2696726 L32.9599765,45.6290375 L34.3005297,45.6290375 C34.4351978,45.6290375 34.5316065,45.6511035 34.5897587,45.6952363 C34.6479108,45.739369 34.6769865,45.8181763 34.6769865,45.9316605 C34.6769865,46.1334102 34.5515021,46.2342835 34.3005297,46.2342835 L32.9599765,46.2342835 L32.9599765,46.395052 C32.9599765,46.571583 32.895704,46.6787609 32.7671572,46.7165889 L36.8071807,46.7165889 C36.7214828,46.6724562 36.6786345,46.5684306 36.6786345,46.404509 L36.6786345,46.2342835 L35.2738081,46.2342835 C35.028957,46.2342835 34.9065333,46.1334102 34.9065333,45.9316605 C34.9065333,45.8055669 34.9371392,45.7236074 34.998352,45.6857793 C35.0595648,45.6479512 35.1513826,45.6290375 35.2738081,45.6290375 L36.6786345,45.6290375 L36.6786345,45.2696726 L36.6786345,44.7022545 Z M37.0591534,51.7618821 C36.9223887,51.8569406 36.3837217,51.8187451 36.1633557,51.8313544 C35.9716304,51.8313544 33.9521988,51.838091 33.7876895,51.8313544 C33.521217,51.8204425 33.3655098,51.7965578 33.2216598,51.7618821 C33.0778098,51.7272063 32.9691587,51.6720412 32.8957034,51.5963851 C32.822248,51.520729 32.7732785,51.4214318 32.7487934,51.2984906 C32.7243083,51.1755494 32.7120659,51.0163586 32.7120659,50.8209136 L32.7120659,50.1589258 C32.7120659,49.88152 32.8289957,49.8264769 33.0493618,49.8264769 C33.3248193,49.8264769 33.4282522,49.88152 33.3731607,50.1589258 L33.3731607,50.8114567 C33.3731607,50.9438549 33.4083575,51.0478805 33.4787522,51.1235366 C33.5491469,51.1991928 33.7098281,51.2433249 33.9608005,51.2559342 C34.1321963,51.2685436 34.3127713,51.2764243 34.5025309,51.2795766 C34.6922905,51.282729 34.8774564,51.2843051 35.0580341,51.2843051 C35.2386119,51.2843051 35.4084748,51.282729 35.567628,51.2795766 C35.7267813,51.2764243 35.8614474,51.2716959 35.9716304,51.2653912 C36.0879347,51.2590865 36.6855661,51.2559342 36.8598532,51.2217436 C37.0578211,51.1894929 37.156805,51.2714533 37.156805,51.4676248 C37.156805,51.7618821 37.1029341,51.7314522 37.0591534,51.7618821 Z M40.6812242,47.6761076 C40.5404348,47.6761076 40.4424959,47.6493131 40.3874044,47.5957234 C40.3323128,47.5421336 40.3047675,47.4522933 40.3047675,47.3261997 C40.3047675,47.2001062 40.3323128,47.1086897 40.3874044,47.0519476 C40.4424959,46.9952055 40.5404348,46.9668349 40.6812242,46.9668349 L48.6235433,46.9668349 C48.7643327,46.9668349 48.8622716,46.9952055 48.9173632,47.0519476 C48.9724547,47.1086897 49,47.2001062 49,47.3261997 C49,47.4522933 48.9724547,47.5421336 48.9173632,47.5957234 C48.8622716,47.6493131 48.7643327,47.6761076 48.6235433,47.6761076 L44.4274279,47.6761076 C44.188698,48.0417789 43.9637444,48.3759218 43.7525603,48.6785463 C43.5413762,48.9811709 43.3347862,49.263301 43.132784,49.5249451 C42.9307818,49.7865892 42.7303129,50.0371964 42.5313714,50.2767742 C42.3324298,50.5163519 42.1258398,50.7559261 41.9115951,50.9955038 C41.801412,51.1215974 41.8381392,51.1783386 42.0217775,51.1657293 L47.3623573,51.2217436 C47.1664764,50.9254238 46.9616256,50.6578431 46.7412596,50.3520662 C46.5208935,50.0462893 46.3158338,49.7610069 46.1260742,49.4962105 C46.034255,49.3638122 45.9852855,49.2597866 45.9791642,49.1841305 C45.9730429,49.1084743 46.0158912,49.0233625 46.1077104,48.9287923 C46.2852275,48.7459566 46.4933478,48.8090025 46.7320777,49.1179317 C46.8973522,49.3449001 47.0687454,49.5828981 47.2462625,49.8319329 C47.4237796,50.0809676 47.5951728,50.3299987 47.7604473,50.5790334 C47.9257218,50.8280682 47.976438,50.8434649 48.2287228,51.3072201 C48.4810076,51.7709753 47.990775,51.8313544 47.8864674,51.8313544 L41.8907052,51.7986188 C41.5662774,51.8112281 41.2244857,51.8592408 41.0806357,51.7709753 C40.9367856,51.6827098 40.8648617,51.5566182 40.8648617,51.3926965 C40.8648617,51.2918217 40.892407,51.1893722 40.9474985,51.085345 C41.00259,50.9813179 41.0791049,50.8694115 41.1770453,50.7496226 C41.6116561,50.2452484 42.0217756,49.7519148 42.4074161,49.2696069 C42.7930567,48.7872991 43.1786914,48.2561379 43.564332,47.6761076 L40.6812242,47.6761076 Z M48.3021778,44.2010351 C48.3021778,44.3271287 48.2746324,44.4185451 48.2195409,44.4752872 C48.1644494,44.5320293 48.069571,44.5603999 47.9349029,44.5603999 L41.4065921,44.5603999 C41.271924,44.5603999 41.1770456,44.5320293 41.1219541,44.4752872 C41.0668626,44.4185451 41.0393172,44.3271287 41.0393172,44.2010351 C41.0393172,44.0749415 41.0668626,43.9819489 41.1219541,43.9220545 C41.1770456,43.8621601 41.271924,43.8322133 41.4065921,43.8322133 L47.9349029,43.8322133 C48.069571,43.8322133 48.1644494,43.8621601 48.2195409,43.9220545 C48.2746324,43.9819489 48.3021778,44.0749415 48.3021778,44.2010351 Z M23.1419637,47.050366 L21.1667491,48.2249239 C21.0079751,48.3193386 20.8049515,48.2633088 20.7132833,48.0997777 C20.6249926,47.942272 20.6773882,47.7408701 20.8303122,47.6499341 C20.8337764,47.6478741 20.8372779,47.6458813 20.8408147,47.6439566 L23.1085311,46.4099188 C23.2102034,46.3545912 23.3300985,46.3678338 23.4170421,46.4350468 C23.4258587,46.4401987 23.4345184,46.4458269 23.4429905,46.4519369 C23.4440432,46.452696 23.4450914,46.4534617 23.4461351,46.4542339 L24.557034,47.2761236 C24.7027826,47.3839546 24.7372225,47.5924641 24.6342923,47.743868 C24.5329507,47.892935 24.3334697,47.9291627 24.188739,47.8247849 C24.1876863,47.8240257 24.1866381,47.82326 24.1855943,47.8224878 L23.1419637,47.050366 Z M32.2259306,49.9251884 C32.357691,50.0431576 32.3708388,50.2448666 32.2555072,50.3789419 L31.1198871,51.6991225 C31.0149682,51.8210928 30.8324446,51.8384164 30.706453,51.7383623 C30.5835568,51.6407663 30.563047,51.4620221 30.6606429,51.339126 C30.6614471,51.3381134 30.6622581,51.3371063 30.663076,51.3361048 L31.7873349,49.9594158 C31.8936178,49.8292692 32.0852818,49.8099238 32.2154284,49.9162067 C32.2189967,49.9191207 32.2224983,49.9221154 32.2259306,49.9251884 Z M34.2077928,49.9491242 C34.2714987,49.7867224 34.4547952,49.7067136 34.617197,49.7704195 C34.619207,49.771208 34.621209,49.7720171 34.6232025,49.7728466 L35.9924665,50.3426402 C36.1578433,50.4114586 36.2378094,50.5999041 36.1723966,50.7666572 C36.1086907,50.929059 35.9253942,51.0090679 35.7629924,50.945362 C35.7609823,50.9445735 35.7589804,50.9437644 35.7569869,50.9429348 L34.3877229,50.3731413 C34.2223461,50.3043229 34.14238,50.1158774 34.2077928,49.9491242 Z M36.6798352,49.9491242 C36.743541,49.7867224 36.9268375,49.7067136 37.0892393,49.7704195 C37.0912494,49.771208 37.0932514,49.7720171 37.0952449,49.7728466 L38.7919428,50.4788957 C38.9573196,50.5477141 39.0372858,50.7361596 38.9718729,50.9029127 C38.908167,51.0653145 38.7248705,51.1453234 38.5624687,51.0816175 C38.5604587,51.080829 38.5584567,51.0800199 38.5564632,51.0791903 L36.8597653,50.3731413 C36.6943885,50.3043229 36.6144223,50.1158774 36.6798352,49.9491242 Z M15.3437311,45.2842218 L17.5214837,45.2842218 C17.700269,45.2842218 17.8452031,45.4291559 17.8452031,45.6079412 C17.8452031,45.7867264 17.700269,45.9316605 17.5214837,45.9316605 L15.3437311,45.9316605 C15.1649459,45.9316605 15.0200118,45.7867264 15.0200118,45.6079412 C15.0200118,45.4291559 15.1649459,45.2842218 15.3437311,45.2842218 Z M31.0604258,44.6786085 L31.6812587,44.6786085 C31.8413665,44.6786085 31.9711595,44.8084015 31.9711595,44.9685093 C31.9711595,45.1288287 31.8415795,45.2589962 31.6812617,45.2597213 L31.0604229,45.2625294 C30.899543,45.2632571 30.7685343,45.1334281 30.7678066,44.9725483 C30.7678046,44.9721091 30.7678036,44.9716699 30.7678036,44.9712307 C30.7678036,44.8096199 30.8988151,44.6786085 31.0604258,44.6786085 Z M31.5892918,47.8303289 L36.7377406,47.8303289 C36.915252,47.8303289 37.0591534,47.9742304 37.0591534,48.1517418 C37.0591534,48.3293073 36.9153062,48.4733044 36.7377407,48.4734894 L31.5892916,48.4788513 C31.4103004,48.4790377 31.2650483,48.3340878 31.2648619,48.1550966 C31.2648617,48.1549841 31.2648617,48.1548716 31.2648617,48.154759 C31.2648617,47.9755812 31.410114,47.8303289 31.5892918,47.8303289 Z M35.4394005,44.6786085 L36.0629548,44.6786085 C36.2230626,44.6786085 36.3528556,44.8084015 36.3528556,44.9685093 C36.3528556,45.1286171 36.2230626,45.2584101 36.0629548,45.2584101 L35.4394005,45.2584101 C35.2792927,45.2584101 35.1494997,45.1286171 35.1494997,44.9685093 C35.1494997,44.8084015 35.2792927,44.6786085 35.4394005,44.6786085 Z M23.1130072,49.6489769 L27.0565043,49.6489769 C27.2352896,49.6489769 27.3802237,49.793911 27.3802237,49.9726962 C27.3802237,50.1514815 27.2352896,50.2964156 27.0565043,50.2964156 L23.1130072,50.2964156 C22.9342219,50.2964156 22.7892878,50.1514815 22.7892878,49.9726962 C22.7892878,49.793911 22.9342219,49.6489769 23.1130072,49.6489769 Z" id="合并形状" transform="translate(25.000000, 47.500000) scale(-1, 1) translate(-25.000000, -47.500000) "></path>
                </g>
            </g>
        </g>
    </g>
</svg>